<svg width="550" height="550" viewBox="0 0 550 550" fill="none" xmlns="http://www.w3.org/2000/svg">
<g clip-path="url(#clip0_94_1548)">
<path d="M458.241 443.828C458.241 443.828 450.245 403.279 417.565 388.58C384.885 373.882 385.012 396.931 385.012 399.937C385.012 402.943 384.078 410.461 396.62 411.462C409.161 412.464 420.766 405.791 432.774 417.476C444.782 429.162 451.05 439.192 452.519 447.874L458.241 443.828Z" fill="#2E6857"/>
<path d="M453.52 446.604C453.497 446.338 450.981 419.779 426.762 401.911C402.543 384.043 385.671 397.714 385.503 397.86L385.277 397.459C385.321 397.424 389.62 393.894 396.879 392.64C403.565 391.489 414.219 392.092 426.969 401.503C451.365 419.5 453.894 446.293 453.917 446.554L453.52 446.604Z" fill="#40947E"/>
<path d="M405.431 392.611C402.082 386.958 389.257 388.323 389.127 388.337L389.09 387.851C389.626 387.791 402.271 386.448 405.754 392.326L405.431 392.611ZM402.999 411.446L402.602 411.401C402.615 411.239 403.939 395.633 414.756 394.495L414.79 394.982C404.307 396.082 403.012 411.292 402.999 411.446ZM429.057 403.52C428.283 396.913 415.989 388.553 415.864 388.47L416.057 388.044C416.571 388.391 428.649 396.605 429.453 403.451L429.057 403.52ZM437.238 411.612C428.973 403.436 423.139 411.095 422.889 411.425L422.593 411.101C422.655 411.015 428.934 402.765 437.489 411.237L437.238 411.612ZM444.315 420.619L443.971 420.372C445.011 418.219 441.159 409.884 439.588 406.855L439.925 406.596C440.161 407.053 445.691 417.77 444.315 420.619ZM452.067 439.216L450.072 433.058C448.128 427.08 438.594 423.194 438.497 423.155L438.623 422.695C439.022 422.857 448.439 426.689 450.444 432.88L452.438 439.038L452.067 439.216ZM466.503 439.224L470.166 439.401C470.532 425.302 485.363 396.22 491.771 383.881C498.178 371.542 521.427 345.459 521.427 345.459C515.019 344.93 513 341.758 513 341.758L526.915 339.642C526.915 339.642 534.055 334.531 542.473 322.547C550.89 310.563 554.557 288.002 541.014 283.77C527.471 279.539 508.055 297.869 508.055 297.869C508.055 297.869 508.788 309.326 506.597 311.044C504.406 312.762 503.301 302.455 503.301 302.455C503.301 302.455 492.591 306.949 475.286 343.698C457.982 380.447 466.503 439.224 466.503 439.224ZM526.092 310.127C529.205 308.197 532.79 308.216 534.098 310.171C535.405 312.125 533.936 315.275 530.827 317.205C527.719 319.135 524.128 319.116 522.82 317.162C521.512 315.207 522.977 312.057 526.092 310.127ZM497.985 319.328C497.156 317.393 497.924 315.254 499.7 314.549C501.476 313.844 503.589 314.839 504.417 316.774C505.245 318.709 504.479 320.85 502.703 321.555C500.927 322.26 498.813 321.263 497.985 319.328ZM496.073 325.366C496.073 323.858 497.161 322.634 498.504 322.634C499.847 322.634 500.935 323.858 500.935 325.366C500.935 326.875 499.847 328.099 498.504 328.099C497.161 328.099 496.073 326.875 496.073 325.366Z" fill="#40947E"/>
<path d="M469.427 439.064L469.858 439.036C468.623 420.47 475.118 382.766 497.487 337.603C509.811 312.721 522.646 301.373 531.241 296.234C540.545 290.672 547.02 290.99 547.085 290.993L547.111 290.565C547.046 290.565 540.467 290.23 531.056 295.843C522.401 301.008 509.482 312.412 497.098 337.415C474.692 382.653 468.183 420.445 469.427 439.064Z" fill="#2E6857"/>
<path d="M530.001 296.325L530.432 296.3C530.045 289.256 537.58 283.628 537.658 283.573L537.4 283.229C537.323 283.286 529.602 289.047 530.001 296.325ZM517.184 307.949C526.954 300.848 547.761 306.735 547.974 306.795L548.096 306.383C547.884 306.323 526.867 300.378 516.935 307.604L517.184 307.949ZM510.613 314.716L511.005 314.538C508.681 309.548 517.824 290.667 517.917 290.476L517.526 290.291C517.145 291.074 508.211 309.547 510.613 314.716ZM500.747 331.092C505.534 324.679 537.182 328.633 537.501 328.674L537.556 328.249C536.243 328.087 505.336 324.224 500.399 330.842L500.747 331.092ZM493.205 345.959L493.584 345.753C490.598 340.347 495.42 310.877 495.469 310.587L495.043 310.517C494.842 311.726 490.147 340.421 493.205 345.959ZM486.135 363.225C491.99 353.812 515.768 352.143 516.008 352.128L515.978 351.7C514.992 351.765 491.738 353.398 485.767 363.002L486.135 363.225ZM479.69 379.867L479.994 379.564C476.115 375.718 476.334 344.98 476.335 344.669H475.904C475.886 345.939 475.677 375.895 479.69 379.867ZM474.979 397.461C480.195 386.475 493.727 381.808 493.863 381.763L493.724 381.356C493.586 381.403 479.884 386.127 474.588 397.279L474.979 397.461ZM471.441 412.146L471.746 411.843C467.6 407.735 466.897 386.119 466.884 385.9L466.453 385.913C466.487 386.811 467.176 407.918 471.441 412.146ZM469.947 429.938C472.169 410.774 482.101 405.517 482.193 405.468L481.997 405.087C481.895 405.139 471.765 410.501 469.519 429.891L469.947 429.938Z" fill="#2E6857"/>
<path d="M470.57 438.881C470.57 438.881 477.268 394.387 509.949 379.931C542.631 365.474 542.501 388.145 542.501 391.103C542.501 394.06 543.436 401.451 530.895 402.438C518.354 403.425 506.749 396.852 494.741 408.352C482.732 419.851 476.463 429.709 474.996 438.252L470.57 438.881Z" fill="#2E6857"/>
<path d="M473.995 437.001C474.017 436.74 476.534 410.617 500.751 393.042C524.969 375.467 541.844 388.914 542.01 389.052L542.236 388.657C542.194 388.623 537.893 385.147 530.636 383.917C523.948 382.782 513.296 383.379 500.546 392.634C476.15 410.336 473.62 436.688 473.598 436.952L473.995 437.001Z" fill="#40947E"/>
<path d="M522.079 383.895C525.429 378.335 538.254 379.682 538.384 379.691L538.419 379.215C537.883 379.157 525.238 377.834 521.755 383.615L522.079 383.895ZM524.512 402.421L524.907 402.376C524.896 402.222 523.57 386.867 512.763 385.747L512.729 386.224C523.202 387.31 524.499 402.27 524.512 402.421ZM498.454 394.625C499.228 388.126 511.522 379.904 511.645 379.821L511.452 379.403C510.938 379.743 498.86 387.83 498.058 394.557L498.454 394.625ZM490.273 402.583C498.53 394.542 504.372 402.074 504.621 402.399L504.918 402.074C504.855 401.99 498.577 393.874 490.02 402.209L490.273 402.583ZM483.196 411.443L483.538 411.201C482.499 409.082 486.35 400.885 487.914 397.913L487.576 397.658C487.35 398.098 481.82 408.641 483.196 411.443ZM475.443 429.74L477.438 423.686C479.373 417.805 488.917 413.984 489.012 413.945L488.887 413.491C488.489 413.653 479.072 417.421 477.066 423.509L475.072 429.565L475.443 429.74ZM400.617 344.527C413.743 363.501 441.323 402.28 443.509 405.706C445.695 409.132 457.394 434.552 456.721 440.481L463.528 439.261C463.528 439.261 459.491 381.816 442.671 344.923C425.852 308.029 404.321 315.674 399.949 317.254C395.577 318.834 387.497 325.556 400.617 344.527ZM428.537 341.892C428.537 340.22 430.007 338.862 431.817 338.862C433.627 338.862 435.097 340.22 435.097 341.892C435.097 343.565 433.629 344.923 431.817 344.923C430.005 344.923 428.537 343.566 428.537 341.892Z" fill="#40947E"/>
<path d="M459.863 439.289L460.393 439.235C460.363 439.031 457.016 418.309 439.691 372.618C430.63 348.713 420.256 334.97 413.15 327.646C405.428 319.685 399.931 317.424 399.699 317.332L399.461 317.714C399.683 317.805 421.907 327.196 439.179 372.748C456.488 418.397 459.833 439.084 459.863 439.289Z" fill="#6FC183"/>
<path d="M414.878 330.239L415.379 330.092C411.327 321.211 416.787 317.012 416.837 316.965L416.476 316.651C416.422 316.701 410.705 321.077 414.878 330.239ZM422.569 340.648L423.016 340.415C409.913 324.295 393.953 328.865 393.793 328.909L393.981 329.311C394.138 329.267 409.708 324.828 422.569 340.648ZM425.823 344.288L426.332 344.155C422.494 334.756 432.273 328.465 432.373 328.403L432.049 328.066C431.942 328.132 421.869 334.595 425.823 344.288ZM432.023 355.97L432.393 355.661C416.701 343.597 402.505 346.261 402.362 346.297L402.492 346.712C402.631 346.684 416.558 344.08 432.023 355.97ZM436.54 365.833H437.074C436.648 347.208 443.121 346.386 443.187 346.375L443.132 345.949C442.845 345.958 436.102 346.705 436.54 365.833ZM442.916 382.61L443.403 382.425C433.355 365.617 416.803 366.831 416.638 366.846L416.694 367.272C416.85 367.26 433.049 366.089 442.916 382.61ZM447.921 397.109L448.454 397.09C447.378 377.928 452.233 374.992 452.282 374.964L451.977 374.613C451.773 374.729 446.838 377.721 447.921 397.109ZM452.533 413.313L453.051 413.211C448.69 398.867 437.031 394.661 436.914 394.618L436.702 395.012C436.815 395.061 448.245 399.188 452.533 413.313Z" fill="#6FC183"/>
<path d="M461.962 440.047L467.438 440.918C465.025 431.681 466.141 408.598 467.989 399.391C469.836 390.185 480.055 368.925 480.055 368.925C475.788 369.765 473.881 368.074 473.881 368.074L482.533 364.128C482.533 364.128 486.217 359.485 489.44 350.135C492.663 340.784 490.804 325.438 481.198 325.19C471.591 324.942 462.416 340.447 462.416 340.447C462.416 340.447 465.046 347.762 463.939 349.286C462.832 350.809 460.181 344.306 460.181 344.306C460.181 344.306 454.06 349.208 449.717 376.302C445.374 403.396 461.962 440.047 461.962 440.047ZM476.442 345.084C478.103 343.253 480.438 342.604 481.656 343.625C482.875 344.646 482.514 346.973 480.846 348.811C479.179 350.649 476.85 351.292 475.631 350.261C474.413 349.231 474.779 346.918 476.443 345.089L476.442 345.084ZM459.893 356.265C458.99 355.16 459.082 353.627 460.11 352.84C461.137 352.052 462.693 352.311 463.596 353.417C464.498 354.522 464.406 356.055 463.38 356.841C462.354 357.627 460.795 357.369 459.893 356.264V356.265ZM459.786 360.544C459.502 359.571 459.978 358.567 460.85 358.32C461.722 358.074 462.657 358.667 462.941 359.648C463.224 360.628 462.748 361.625 461.876 361.873C461.004 362.12 460.076 361.524 459.786 360.544Z" fill="#6FC183"/>
<path d="M463.834 439.404L464.11 439.307C459.815 427.461 456.95 401.741 463.005 368.241C466.341 349.783 472.554 340.032 477.178 335.103C482.182 329.768 486.454 328.783 486.496 328.768L486.433 328.484C486.389 328.494 482.057 329.494 476.985 334.884C472.326 339.841 466.069 349.642 462.724 368.189C456.652 401.747 459.528 427.525 463.834 439.404Z" fill="#40947E"/>
<path d="M476.389 335.391L476.664 335.296C475.087 330.786 478.933 325.735 478.968 325.684L478.737 325.508C478.698 325.56 474.76 330.726 476.389 335.391ZM470.239 345.311C475.262 338.889 489.894 338.876 490.042 338.876V338.586C489.892 338.586 475.112 338.599 470.005 345.134L470.239 345.311ZM467.237 350.932L467.459 350.745C465.011 347.928 467.404 333.962 467.429 333.821L467.142 333.771C467.048 334.351 464.7 348.016 467.237 350.932ZM463.901 363.404C465.808 358.35 487.133 355.076 487.348 355.044L487.303 354.757C486.418 354.891 465.588 358.09 463.627 363.304L463.901 363.404ZM461.791 374.464L461.998 374.26C459.039 371.296 456.634 351.248 456.611 351.038L456.321 351.072C456.419 351.902 458.762 371.429 461.791 374.464ZM460.439 387.001C462.476 379.798 477.627 374.32 477.779 374.265L477.68 373.993C477.051 374.218 462.236 379.576 460.157 386.923L460.439 387.001ZM459.373 399.014L459.514 398.761C456.273 396.979 450.63 376.947 450.573 376.744L450.293 376.822C450.518 377.652 456.028 397.168 459.373 399.014ZM459.622 411.325C460.948 403.223 468.871 397.682 468.95 397.627L468.788 397.39C468.707 397.445 460.685 403.048 459.339 411.278L459.622 411.325ZM460.079 421.528L460.22 421.275C456.752 419.37 452.231 405.441 452.186 405.3L451.907 405.389C452.097 405.968 456.514 419.567 460.079 421.528ZM462.455 433.374C460.297 420.501 465.764 415.249 465.819 415.198L465.618 414.986C465.562 415.039 459.984 420.399 462.167 433.423L462.455 433.374Z" fill="#40947E"/>
<path fill-rule="evenodd" clip-rule="evenodd" d="M297.785 258.031H450.385V97.75H297.785V258.031Z" fill="#ADC5F2"/>
<path fill-rule="evenodd" clip-rule="evenodd" d="M303.078 251.833H443.874V103.947H303.078V251.833Z" fill="#E9F2FF"/>
<path fill-rule="evenodd" clip-rule="evenodd" d="M329.523 251.833H443.874V179.233H419.869V218.908H407.898V161.604H385.761V213.369H375.228V192.464H351.665V220.798H329.523V251.841V251.833ZM367.854 205.401H370.471V200.287H367.854V205.401ZM393.882 183.994H396.499V178.881H393.882V183.997V183.994ZM393.882 171.516H396.499V166.403H393.882V171.521V171.516ZM388.832 171.516H391.451V166.403H388.832V171.521V171.516Z" fill="#BED4ED"/>
<path fill-rule="evenodd" clip-rule="evenodd" d="M329.523 251.833H443.874V171.316H419.869V215.309H407.898V151.765H385.761V209.174H375.228V185.981H351.665V217.405H329.523V251.833ZM367.854 200.339H370.471V194.667H367.854V200.339ZM393.882 176.598H396.499V170.926H393.882V176.598ZM393.882 162.763H396.499V157.091H393.882V162.763ZM388.832 162.763H391.451V157.091H388.832V162.763Z" fill="#D0E0F4"/>
<path fill-rule="evenodd" clip-rule="evenodd" d="M372.16 251.833H379.851V213.369H375.231V192.456H372.16V251.833Z" fill="#BED4ED"/>
<path fill-rule="evenodd" clip-rule="evenodd" d="M372.961 97.7485H379.796V257.401H372.961V97.7485Z" fill="#ADC5F2"/>
<path d="M259.361 469.93C394.646 469.93 504.316 460.387 504.316 448.615C504.316 436.843 394.646 427.3 259.361 427.3C124.076 427.3 14.4062 436.843 14.4062 448.615C14.4062 460.387 124.076 469.93 259.361 469.93Z" fill="#7A8DB0"/>
<path d="M183.959 182.14C183.959 182.14 191.673 205.887 194.759 204.179C197.844 202.471 206.751 185.045 206.751 185.045L220.807 194.271C220.807 194.271 217.919 225.829 204.866 232.368C188.323 240.654 172.293 218.701 172.293 218.701L183.959 182.14Z" fill="#711DDC"/>
<path d="M147.771 121.26C147.771 121.26 162.032 119.385 159.716 109.792C158.199 103.512 158.331 105.181 162.218 101.527C166.106 97.8726 164.863 92.0598 161.366 90.3274C158.574 88.9435 152.417 89.2027 151.043 86.2307C149.669 83.2586 145.948 79.0792 138.241 81.9816C133.068 83.9263 132.731 89.347 123.768 89.6208C113.646 89.9288 109.897 98.8304 112.81 106.035C114.848 111.082 119.71 119.272 119.89 117.603L147.771 121.26Z" fill="black"/>
<path d="M129.035 117.162L128.104 108.975C125.511 110.796 118.589 115.005 116.148 105.752C113.707 96.4983 117.981 91.1667 117.981 91.1667C117.981 91.1667 117.799 91.2396 117.908 91.0581C112.751 94.0577 109.407 100.548 112.311 107.733C114.351 112.78 117.707 120.86 117.885 119.191L128.349 118.705C128.611 118.206 128.84 117.691 129.035 117.162Z" fill="#3A3A3A"/>
<path d="M142.524 124.24L144.219 145.284C144.219 145.284 143.938 150.666 136.962 151.766C131.092 152.693 125.438 146.794 125.438 146.794L123.539 123.233L142.524 124.24Z" fill="#F5B0A6"/>
<path d="M144.229 145.388L129.973 134.869L143.741 139.345L144.229 145.388Z" fill="#F18A8B"/>
<path d="M154.408 98.2241L156.352 129.854C156.401 130.452 156.305 131.053 156.072 131.606C155.839 132.16 155.476 132.648 155.014 133.032L147.926 138.896C147.438 139.303 146.855 139.579 146.231 139.698C145.607 139.817 144.964 139.776 144.36 139.577L129.918 134.887C129.212 134.659 128.588 134.226 128.127 133.644C127.666 133.062 127.387 132.357 127.325 131.617L124.57 101.596L154.408 98.2241Z" fill="#F5B0A6"/>
<path d="M155.252 116.178L156.127 127.035C155.414 127.093 154.697 127.009 154.016 126.79C153.336 126.57 152.705 126.218 152.16 125.755C151.06 124.819 150.377 123.484 150.261 122.044C150.145 120.604 150.605 119.177 151.542 118.077C152.478 116.977 153.812 116.294 155.252 116.178ZM144.599 122.911C144.488 122.915 144.38 122.876 144.298 122.8C144.217 122.725 144.169 122.62 144.164 122.509C144.16 122.398 144.2 122.29 144.275 122.209C144.351 122.127 144.455 122.079 144.566 122.075L148.294 121.777L146.209 110.55C146.194 110.442 146.221 110.333 146.284 110.245C146.347 110.157 146.442 110.097 146.549 110.077C146.655 110.057 146.766 110.079 146.856 110.139C146.947 110.199 147.011 110.291 147.034 110.397L149.203 122.08C149.212 122.136 149.21 122.194 149.197 122.25C149.183 122.306 149.158 122.358 149.123 122.404C149.087 122.45 149.042 122.489 148.99 122.517C148.939 122.544 148.882 122.561 148.823 122.566L144.628 122.901L144.599 122.911Z" fill="#F18A8B"/>
<path d="M138.819 108.166C138.918 109.749 133.755 111.201 133.372 109.786C132.735 107.415 138.663 105.659 138.819 108.166Z" fill="black"/>
<path d="M134.336 128.396C137.354 128.396 139.8 125.957 139.8 122.949C139.8 119.941 137.354 117.502 134.336 117.502C131.318 117.502 128.871 119.941 128.871 122.949C128.871 125.957 131.318 128.396 134.336 128.396Z" fill="#F18A8B"/>
<path d="M140.547 114.735C140.608 115.832 140.14 116.751 139.5 116.787C138.86 116.822 138.288 115.963 138.224 114.866C138.161 113.769 138.631 112.85 139.271 112.815C139.911 112.779 140.483 113.638 140.547 114.735ZM152.312 113.793C152.375 114.891 151.905 115.809 151.265 115.845C150.625 115.881 150.053 115.022 149.99 113.925C149.926 112.828 150.396 111.909 151.038 111.873C151.68 111.837 152.249 112.696 152.312 113.793Z" fill="#202020"/>
<path d="M145.207 130.057C144.056 130.048 142.935 129.694 141.987 129.041C141.943 129.007 141.907 128.966 141.88 128.918C141.852 128.87 141.834 128.818 141.828 128.763C141.821 128.708 141.825 128.653 141.839 128.6C141.854 128.547 141.879 128.497 141.912 128.454C141.981 128.367 142.081 128.31 142.191 128.296C142.301 128.282 142.413 128.312 142.501 128.38C142.613 128.465 145.27 130.446 148.284 128.055C148.372 127.987 148.483 127.956 148.593 127.969C148.704 127.981 148.805 128.037 148.874 128.124C148.943 128.21 148.974 128.321 148.962 128.431C148.949 128.541 148.893 128.641 148.806 128.71C147.526 129.733 146.28 130.057 145.207 130.057Z" fill="#F18A8B"/>
<path d="M121.64 130.18C125.458 130.18 128.553 127.096 128.553 123.29C128.553 119.484 125.458 116.399 121.64 116.399C117.822 116.399 114.727 119.484 114.727 123.29C114.727 127.096 117.822 130.18 121.64 130.18Z" fill="#F5B0A6"/>
<path d="M123.418 127.257C123.343 127.257 123.269 127.236 123.204 127.198C123.14 127.159 123.086 127.103 123.051 127.037C123.015 126.97 122.998 126.896 123.001 126.82C123.005 126.745 123.028 126.672 123.07 126.609C123.508 125.948 123.755 125.09 123.811 124.056C123.995 120.504 119.782 120.227 119.597 120.217C119.541 120.216 119.486 120.203 119.436 120.18C119.385 120.156 119.339 120.123 119.301 120.082C119.264 120.041 119.235 119.993 119.216 119.94C119.197 119.888 119.189 119.832 119.192 119.776C119.195 119.72 119.209 119.666 119.234 119.615C119.259 119.565 119.293 119.521 119.335 119.484C119.377 119.447 119.426 119.419 119.479 119.402C119.532 119.385 119.588 119.378 119.644 119.383C121.453 119.483 124.83 120.6 124.644 124.1C124.58 125.283 124.285 126.283 123.764 127.069C123.726 127.126 123.675 127.173 123.614 127.206C123.554 127.239 123.487 127.256 123.418 127.257Z" fill="#F18A8B"/>
<path d="M124.227 124.495C124.165 124.494 124.103 124.479 124.047 124.451C123.991 124.423 123.941 124.383 123.903 124.333C122.445 122.468 120.795 123.636 120.612 123.776C120.523 123.843 120.412 123.873 120.302 123.858C120.191 123.843 120.092 123.786 120.024 123.698C119.956 123.61 119.927 123.5 119.941 123.391C119.955 123.281 120.012 123.182 120.1 123.115C120.946 122.466 122.968 121.771 124.566 123.821C124.6 123.865 124.624 123.914 124.639 123.967C124.653 124.02 124.657 124.075 124.65 124.13C124.643 124.184 124.626 124.237 124.598 124.285C124.571 124.332 124.535 124.374 124.491 124.408C124.416 124.466 124.323 124.497 124.227 124.495Z" fill="#F18A8B"/>
<path d="M117.797 109.254C117.797 109.254 120.832 109.205 122.538 111.129C124.245 113.052 123.801 117.621 126.282 118.053C128.763 118.486 126.282 106.557 127.713 105.026C129.144 103.494 133.044 104.264 137.036 101.316C139.953 99.1595 143.824 100.811 146.184 103.66C148.543 106.509 158.163 107.737 158.218 103.723C158.32 96.2069 145.524 90.1688 137.353 89.3115C129.183 88.4542 120.558 89.5935 117.745 97.5762C114.932 105.559 117.797 109.254 117.797 109.254Z" fill="black"/>
<path d="M154.811 108.167C154.183 109.486 149.374 108.373 149.699 107.057C150.237 104.871 155.801 106.077 154.811 108.167Z" fill="black"/>
<path d="M162.224 101.526C166.113 97.87 164.868 92.0588 161.371 90.3264C158.579 88.9425 152.423 89.2018 151.048 86.2297C149.674 83.2576 145.954 79.0782 138.246 81.9806C137.071 82.4384 135.99 83.1098 135.059 83.9609C135.062 83.9699 135.066 83.9791 135.068 83.9885C135.068 83.9885 144.555 80.1673 149.167 88.2781C149.167 88.2781 149.703 91.4527 153.554 91.5694C157.404 91.6861 160.602 92.4639 161.256 94.9563C161.911 97.4487 159.589 100.828 156.934 101.382C154.28 101.936 156.636 107.491 157.258 108.546C157.649 109.212 158.537 111.24 159.947 112.542C160.033 111.619 159.962 110.687 159.736 109.788C158.198 103.513 158.334 105.182 162.224 101.526Z" fill="#3A3A3A"/>
<path d="M117.797 109.254C117.797 109.254 122.022 116.508 125.305 117.3C128.588 118.092 124.981 109.875 124.94 109.683C124.9 109.492 122.718 107.577 122.509 107.528C122.3 107.479 118.228 106.697 118.228 106.697L117.797 109.254Z" fill="black"/>
<path d="M126.092 116.474C112.946 104.414 122.791 91.4628 122.893 91.3315L123.887 92.1029C123.504 92.5891 114.664 104.285 126.943 115.551L126.092 116.474ZM153.147 100.771C152.911 100.821 152.661 100.86 152.421 100.89C148.756 101.317 144.036 99.3532 140.945 96.1073C140.613 95.7423 140.207 95.4531 139.754 95.2596C139.3 95.0661 138.81 94.9727 138.318 94.9859C134.59 95.0248 130.105 99.8313 130.053 99.8783L129.128 99.0307C129.324 98.8152 134.023 93.764 138.298 93.7316C138.964 93.7167 139.625 93.8439 140.237 94.1046C140.85 94.3654 141.4 94.7536 141.85 95.2435C144.686 98.2205 148.971 100.029 152.267 99.6433C154.306 99.4083 155.847 98.3858 156.878 96.6161L157.967 97.2449C156.874 99.1345 155.221 100.343 153.147 100.771Z" fill="#3A3A3A"/>
<path d="M246.928 168.628L249.628 227.368L202.235 229.546L199.176 162.998L238.759 161.178L246.928 168.628Z" fill="white"/>
<path d="M246.931 168.628L239.121 168.986L238.762 161.178L246.931 168.628Z" fill="#4B74BC"/>
<path d="M240.534 195.79L207.817 197.294C207.719 197.298 207.62 197.283 207.527 197.25C207.435 197.216 207.349 197.165 207.276 197.099C207.204 197.032 207.144 196.952 207.103 196.863C207.061 196.773 207.037 196.677 207.032 196.578C207.027 196.48 207.042 196.381 207.076 196.288C207.109 196.196 207.161 196.11 207.227 196.037C207.294 195.965 207.374 195.905 207.463 195.863C207.552 195.822 207.649 195.798 207.748 195.793L240.465 194.288C240.563 194.283 240.662 194.297 240.755 194.331C240.848 194.364 240.934 194.416 241.007 194.482C241.08 194.549 241.14 194.629 241.182 194.718C241.224 194.808 241.248 194.905 241.253 195.004C241.257 195.103 241.242 195.201 241.209 195.294C241.175 195.387 241.123 195.473 241.057 195.546C240.99 195.619 240.909 195.678 240.82 195.72C240.73 195.762 240.633 195.785 240.534 195.79ZM240.79 201.368L208.073 202.865C207.874 202.874 207.68 202.803 207.533 202.669C207.386 202.535 207.298 202.348 207.289 202.149C207.28 201.95 207.35 201.755 207.484 201.608C207.618 201.461 207.805 201.373 208.004 201.363L240.721 199.859C240.819 199.854 240.918 199.869 241.011 199.902C241.104 199.936 241.19 199.987 241.263 200.054C241.336 200.12 241.396 200.2 241.438 200.29C241.48 200.379 241.504 200.476 241.509 200.575C241.513 200.674 241.498 200.773 241.465 200.866C241.431 200.959 241.379 201.044 241.313 201.117C241.246 201.19 241.165 201.249 241.076 201.291C240.986 201.333 240.889 201.357 240.79 201.361V201.368ZM241.046 206.944L208.329 208.448C208.13 208.457 207.936 208.387 207.789 208.253C207.641 208.119 207.553 207.931 207.544 207.732C207.535 207.533 207.605 207.339 207.739 207.192C207.873 207.044 208.061 206.956 208.26 206.947L240.978 205.443C241.077 205.439 241.175 205.454 241.268 205.487C241.361 205.521 241.446 205.573 241.519 205.639C241.592 205.706 241.651 205.786 241.693 205.875C241.734 205.964 241.758 206.061 241.763 206.16C241.767 206.258 241.752 206.357 241.719 206.449C241.685 206.542 241.634 206.627 241.567 206.7C241.5 206.773 241.42 206.832 241.331 206.874C241.242 206.916 241.145 206.94 241.046 206.944ZM241.304 212.522L208.587 214.026C208.488 214.03 208.39 214.015 208.297 213.982C208.204 213.948 208.119 213.897 208.046 213.83C207.974 213.764 207.915 213.683 207.873 213.594C207.831 213.505 207.807 213.408 207.803 213.309C207.798 213.211 207.813 213.112 207.847 213.02C207.88 212.927 207.932 212.842 207.998 212.769C208.065 212.696 208.145 212.637 208.234 212.595C208.324 212.553 208.42 212.53 208.519 212.525L241.236 211.021C241.435 211.012 241.629 211.083 241.777 211.217C241.924 211.351 242.011 211.539 242.02 211.738C242.029 211.937 241.959 212.131 241.825 212.278C241.69 212.425 241.503 212.513 241.304 212.522ZM241.56 218.098L208.841 219.602C208.642 219.611 208.448 219.541 208.301 219.406C208.154 219.272 208.066 219.085 208.057 218.886C208.048 218.687 208.118 218.492 208.253 218.345C208.387 218.198 208.574 218.11 208.773 218.101L241.49 216.596C241.589 216.591 241.688 216.606 241.781 216.639C241.874 216.673 241.96 216.724 242.033 216.791C242.106 216.857 242.166 216.937 242.208 217.027C242.25 217.116 242.274 217.213 242.278 217.312C242.283 217.411 242.268 217.51 242.234 217.603C242.201 217.696 242.149 217.781 242.082 217.854C242.016 217.927 241.935 217.986 241.846 218.028C241.756 218.07 241.659 218.094 241.56 218.098Z" fill="#4B74BC"/>
<path d="M216.633 186.497C219.775 181.054 222.77 175.495 225.483 169.716C226.202 175.928 226.779 182.032 227.254 188.05L225.633 188.181C225.309 183.949 224.931 179.678 224.499 175.367C222.462 179.418 220.298 183.358 218.059 187.244L216.633 186.497Z" fill="#EF7C59"/>
<path d="M217.719 183.229C217.735 182.704 217.751 182.179 217.764 181.652C221.329 181.721 224.866 181.775 228.375 181.814C228.375 182.347 228.37 182.88 228.358 183.413C224.835 183.368 221.288 183.306 217.719 183.229Z" fill="#EF7C59"/>
<path d="M226.713 167.571C225.072 167.533 223.434 167.735 221.851 168.169C218.688 169.082 215.912 171.006 213.946 173.647C212.993 174.943 212.238 176.402 211.924 177.927C211.361 180.991 212.016 184.342 214.108 186.643C216.158 188.995 219.422 190.141 222.697 190.39C225.966 190.7 229.341 190.084 231.967 188.254C234.593 186.488 236.438 183.513 236.645 180.314C236.731 178.727 236.366 177.073 235.739 175.552C235.115 174.024 234.172 172.647 232.971 171.514C231.79 170.386 230.355 169.558 228.787 169.099C227.206 168.664 225.561 168.505 223.925 168.63C224.742 168.491 225.567 168.414 226.395 168.399C227.229 168.406 228.061 168.494 228.878 168.662C230.562 169.019 232.135 169.779 233.461 170.877C234.838 172.051 235.947 173.507 236.714 175.146C237.481 176.786 237.887 178.57 237.906 180.38C237.855 182.198 237.35 183.974 236.436 185.546C235.548 187.108 234.327 188.454 232.859 189.491C229.905 191.588 226.094 192.275 222.541 191.951C220.74 191.806 218.972 191.386 217.297 190.708C215.615 190.026 214.117 188.959 212.922 187.593C211.771 186.238 210.982 184.613 210.627 182.871C210.266 181.152 210.287 179.375 210.689 177.666C211.611 174.201 214.115 171.394 217.033 169.587C219.937 167.836 223.351 167.125 226.713 167.571Z" fill="#EF7C59"/>
<path d="M229.984 177.697C230.025 176.136 230.055 174.569 230.072 172.997L231.639 173.036C231.627 174.618 231.603 176.19 231.568 177.753L229.984 177.697Z" fill="#EF7C59"/>
<path d="M228.602 176.113C228.619 175.571 228.636 175.032 228.652 174.492C230.136 174.548 231.615 174.602 233.089 174.654C233.079 175.2 233.068 175.745 233.055 176.289C231.576 176.232 230.091 176.173 228.602 176.113Z" fill="#EF7C59"/>
<path d="M217.273 156.636C217.889 156.685 218.461 156.977 218.863 157.447C219.264 157.917 219.464 158.528 219.417 159.144L218.832 166.437C218.779 167.053 218.485 167.623 218.014 168.023C217.542 168.424 216.931 168.621 216.315 168.573C215.699 168.522 215.127 168.23 214.725 167.76C214.324 167.29 214.124 166.68 214.171 166.064L214.757 158.771C214.81 158.156 215.104 157.585 215.575 157.185C216.046 156.785 216.656 156.588 217.273 156.636ZM212.581 156.183C213.199 156.231 213.772 156.522 214.175 156.992C214.578 157.462 214.778 158.073 214.732 158.69L214.1 166.565C214.047 167.181 213.753 167.751 213.282 168.151C212.81 168.552 212.199 168.749 211.583 168.701C210.967 168.651 210.395 168.359 209.993 167.889C209.592 167.419 209.393 166.808 209.44 166.192L210.073 158.319C210.125 157.704 210.417 157.135 210.887 156.735C211.357 156.335 211.966 156.137 212.581 156.183Z" fill="#F5B0A6"/>
<path d="M221.739 158.576C222.355 158.626 222.926 158.918 223.328 159.388C223.73 159.858 223.929 160.468 223.883 161.084L223.502 165.821C223.449 166.437 223.155 167.008 222.684 167.408C222.212 167.808 221.602 168.005 220.985 167.957C220.369 167.907 219.798 167.615 219.396 167.145C218.995 166.675 218.796 166.065 218.843 165.448L219.222 160.711C219.274 160.095 219.568 159.525 220.04 159.125C220.511 158.725 221.122 158.527 221.739 158.576Z" fill="#F5B0A6"/>
<path d="M226.176 158.974C226.792 159.024 227.364 159.316 227.766 159.786C228.167 160.256 228.367 160.866 228.32 161.483L228.132 163.81C228.08 164.426 227.786 164.996 227.314 165.396C226.843 165.797 226.232 165.994 225.615 165.945C224.999 165.895 224.428 165.603 224.026 165.133C223.624 164.663 223.425 164.053 223.471 163.437L223.659 161.105C223.714 160.49 224.008 159.921 224.48 159.522C224.951 159.123 225.561 158.926 226.176 158.974Z" fill="#F5B0A6"/>
<path d="M214.29 166.592H214.259C214.149 166.584 214.046 166.533 213.974 166.449C213.901 166.366 213.864 166.257 213.872 166.146L214.396 158.724C214.398 158.669 214.412 158.616 214.436 158.566C214.461 158.517 214.494 158.473 214.536 158.437C214.578 158.4 214.626 158.373 214.679 158.356C214.731 158.34 214.786 158.334 214.841 158.339C214.896 158.342 214.949 158.357 214.998 158.381C215.047 158.405 215.091 158.439 215.127 158.48C215.163 158.522 215.19 158.57 215.208 158.621C215.225 158.673 215.232 158.728 215.228 158.783L214.705 166.206C214.697 166.311 214.65 166.409 214.573 166.481C214.496 166.552 214.395 166.592 214.29 166.592ZM219.163 166.889H219.131C219.076 166.885 219.023 166.87 218.974 166.845C218.925 166.82 218.882 166.786 218.846 166.745C218.81 166.703 218.783 166.655 218.766 166.603C218.749 166.551 218.742 166.496 218.747 166.441L219.268 159.635C219.281 159.528 219.335 159.431 219.418 159.362C219.502 159.294 219.608 159.26 219.715 159.269C219.823 159.277 219.923 159.326 219.994 159.406C220.066 159.486 220.105 159.591 220.101 159.698L219.58 166.514C219.569 166.617 219.52 166.712 219.443 166.781C219.366 166.851 219.267 166.889 219.163 166.889ZM223.727 166.031H223.706C223.595 166.026 223.491 165.977 223.416 165.895C223.342 165.813 223.303 165.704 223.309 165.594L223.569 160.23C223.576 160.12 223.626 160.017 223.707 159.943C223.789 159.869 223.897 159.83 224.007 159.834C224.062 159.837 224.115 159.85 224.165 159.873C224.215 159.897 224.259 159.93 224.296 159.97C224.333 160.011 224.361 160.058 224.38 160.109C224.398 160.161 224.407 160.216 224.404 160.27L224.143 165.636C224.138 165.743 224.092 165.844 224.014 165.917C223.937 165.991 223.834 166.032 223.727 166.031Z" fill="#F18A8B"/>
<path d="M174.063 437.357L186.832 434.847C186.424 428.749 186.523 419.44 186.523 419.44L172.445 420.393C172.445 420.393 173.316 429.916 174.063 437.357Z" fill="#F5B0A6"/>
<path d="M195.852 442.519C202.091 443.443 208.905 442.654 212.012 441.085C208.122 440.113 203.932 438.858 200.107 437.345C198.684 438.373 197.479 439.674 196.563 441.172C196.301 441.608 196.063 442.057 195.852 442.519Z" fill="white"/>
<path d="M172.96 434.838C172.96 434.838 185.073 434.633 186.073 432.316C186.073 432.316 186.094 427.683 189.81 430.788C189.81 430.788 194.406 435.102 197.948 436.249C201.491 437.397 211.956 440.939 211.956 440.939C211.956 440.939 204.458 444.682 195.751 442.53L171.688 442.838L172.96 434.838Z" fill="#243354"/>
<path d="M171.689 442.838L195.753 442.53C204.035 444.576 211.209 441.296 211.893 440.971H212.48L212.804 444.716L170.707 447.375L171.689 442.838Z" fill="#061A28"/>
<path d="M200.565 437.092C200.565 437.092 197.732 438.155 195.752 442.531C195.752 442.531 197.76 443.341 201.795 443.244C205.83 443.146 208.439 442.576 212.426 440.855L200.565 437.092ZM189.706 436.463C189.879 436.322 190.072 436.201 190.255 436.073L191.326 435.322C192.052 434.814 192.785 434.324 193.524 433.828C193.869 433.595 194.206 434.117 193.879 434.363C193.182 434.888 192.488 435.421 191.783 435.935L190.759 436.68C190.448 436.907 190.02 437.364 189.602 437.23C189.55 437.218 189.503 437.19 189.467 437.15C189.432 437.11 189.41 437.059 189.405 437.006C189.405 436.898 189.433 436.791 189.486 436.696C189.539 436.601 189.614 436.521 189.706 436.463ZM187.813 434.765C187.987 434.622 188.179 434.501 188.364 434.373L189.435 433.623C190.16 433.114 190.894 432.624 191.633 432.128C191.978 431.897 192.315 432.417 191.986 432.665C191.289 433.19 190.597 433.721 189.891 434.235C189.55 434.485 189.209 434.733 188.866 434.981C188.555 435.207 188.128 435.664 187.711 435.53C187.658 435.519 187.611 435.491 187.575 435.451C187.539 435.411 187.517 435.36 187.512 435.306C187.513 435.198 187.541 435.092 187.594 434.997C187.646 434.903 187.722 434.823 187.813 434.765ZM192.743 438.758L194.174 437.137C194.709 436.535 195.249 435.94 195.794 435.355C195.841 435.309 195.904 435.282 195.969 435.28C196.035 435.278 196.099 435.301 196.149 435.344C196.198 435.387 196.23 435.448 196.237 435.513C196.244 435.578 196.226 435.644 196.186 435.697C195.337 436.847 194.457 437.966 193.579 439.1C193.367 439.374 193.124 439.798 192.71 439.685C192.635 439.66 192.569 439.612 192.522 439.547C192.476 439.482 192.452 439.403 192.453 439.324C192.443 439.089 192.597 438.923 192.743 438.758Z" fill="white"/>
<path d="M136.28 440.674L123.306 439.635C123.013 433.532 121.848 424.295 121.848 424.295L135.946 423.637C135.946 423.637 136.168 433.19 136.28 440.674Z" fill="#F5B0A6"/>
<path d="M168.187 216.992L163.586 151.24L166.391 152.191C169.439 153.222 172.196 154.97 174.428 157.288C176.661 159.606 178.304 162.425 179.221 165.51L200.585 216.992H168.187Z" fill="#711DDC"/>
<path d="M181.443 254.429L196.511 421.516L164.523 423.942L144.161 294.408L140.304 425.871L110.992 426.639L94.793 253.405L149.817 225.267L181.443 254.429Z" fill="#6CA2B3"/>
<path opacity="0.5" d="M181.316 251.483L149.818 225.267L97.5489 250.254L95.1797 258.273L182.951 272.274L181.316 251.483Z" fill="#0A2B47"/>
<path d="M143.362 226.487L141.539 288.643L142.109 288.659L143.932 226.504L143.362 226.487Z" fill="#061A28"/>
<path d="M142.565 269.43L142.215 268.98L145.321 266.588C147.058 265.252 148.487 263.557 149.51 261.619C150.533 259.681 151.127 257.546 151.251 255.358L152.547 232.542L153.118 232.574L151.821 255.39C151.692 257.66 151.075 259.876 150.013 261.886C148.95 263.896 147.467 265.653 145.663 267.038L142.565 269.43Z" fill="#061A28"/>
<path d="M142.873 247.969L149.317 233.305L151.828 247.213C152.603 251.471 154.767 255.353 157.981 258.252C161.195 261.151 165.279 262.904 169.594 263.237L186.017 264.523L173.45 218.351L175.777 166.403C175.914 163.265 175.029 160.167 173.254 157.576C171.478 154.985 168.909 153.041 165.934 152.037L144.565 144.79H124.871L104.889 149.951C94.7023 152.578 85.8551 158.897 80.066 167.681L55.7805 204.565C52.8849 208.961 51.2989 214.09 51.2073 219.353C51.1158 224.617 52.5226 229.798 55.2636 234.292C56.6255 236.521 58.8168 238.118 61.3557 238.732C63.8946 239.346 66.5734 238.926 68.8032 237.566L85.1707 227.573L106.491 204.657L92.9865 257.234L123.372 259.615C127.429 259.936 131.485 258.988 134.979 256.901C138.473 254.815 141.232 251.693 142.873 247.969Z" fill="#711DDC"/>
<path d="M182.553 252.883L173.164 218.381L173.166 218.338L175.386 168.79L175.956 168.814L173.739 218.318L183.106 252.734L182.553 252.883Z" fill="#365284"/>
<path d="M149.633 233.425L149.011 233.185L149.839 231.045C150.327 229.773 150.384 228.376 150.001 227.069L146.126 213.957L146.766 213.77L150.639 226.881C151.065 228.329 151.003 229.876 150.461 231.284L149.633 233.425ZM146.445 227.87C146.447 228.241 146.338 228.604 146.132 228.913C145.927 229.222 145.635 229.464 145.292 229.607C144.95 229.75 144.573 229.788 144.208 229.716C143.844 229.644 143.51 229.466 143.247 229.204C142.984 228.942 142.805 228.608 142.732 228.245C142.659 227.881 142.696 227.503 142.837 227.16C142.979 226.817 143.219 226.524 143.528 226.318C143.836 226.111 144.199 226.001 144.57 226.001C145.067 226.001 145.543 226.197 145.894 226.548C146.246 226.898 146.444 227.374 146.445 227.87Z" fill="#2E2E2E"/>
<path d="M102.901 192.098L93.2344 163.87L93.8599 163.657L103.526 191.885L102.901 192.098Z" fill="#2E2E2E"/>
<path d="M147.193 147.442L156.106 154.589C157.205 155.468 157.982 156.687 158.315 158.054C158.647 159.422 158.518 160.861 157.946 162.147L150.938 177.883L157.271 182.906C158.328 183.742 159.092 184.891 159.454 186.188C159.817 187.485 159.758 188.864 159.287 190.126L148.193 219.821L125.084 193.908C124.092 192.797 123.522 191.373 123.472 189.885C123.422 188.396 123.895 186.937 124.81 185.762L129.811 179.327L115.739 164.631C114.655 163.502 114.027 162.013 113.973 160.449C113.918 158.885 114.443 157.356 115.445 156.154L122.705 147.438L124.872 144.79L143.857 205.899L146.406 208.901L144.785 145.376L147.193 147.442Z" fill="#B581F6" fill-opacity="0.63"/>
<path d="M63.447 214.181L63.2461 213.546L95.994 203.285L96.1933 203.918L63.447 214.181Z" fill="#2E2E2E"/>
<path d="M124.871 144.79L146.44 213.864L144.566 144.79H124.871Z" fill="white"/>
<path d="M137.064 151.24L129.199 158.647L130.047 161.358L137.376 153.795L144.927 158.018L144.855 155.4L137.064 151.24Z" fill="white"/>
<path d="M141.941 153.81L137.063 151.24L133.078 155.025L136.831 158.873L135.814 179.826L146.441 213.864L145.521 179.961L140.145 158.625L141.941 153.81Z" fill="#2E2E2E"/>
<path d="M115.226 448.279C109.133 449.9 102.273 449.9 99.0078 448.696C102.751 447.289 106.786 445.565 110.405 443.624C111.938 444.485 113.284 445.641 114.366 447.027C114.676 447.428 114.963 447.846 115.226 448.279Z" fill="white"/>
<path d="M137.084 438.038C137.084 438.038 125.027 439.216 123.768 437.029C123.768 437.029 123.214 432.43 119.879 435.938C119.879 435.938 115.808 440.746 112.424 442.291C109.041 443.835 99.0469 448.546 99.0469 448.546C99.0469 448.546 106.926 451.411 115.33 448.28L139.27 445.841L137.084 438.038Z" fill="#243354"/>
<path d="M139.27 445.841L115.328 448.28C107.335 451.257 99.8306 448.817 99.1225 448.57L98.5391 448.645L98.6412 452.403L140.775 450.244L139.27 445.841Z" fill="#061A28"/>
<path d="M109.924 443.425C109.924 443.425 112.859 444.159 115.329 448.286C115.329 448.286 113.428 449.32 109.408 449.683C105.387 450.046 102.723 449.779 98.5742 448.523L109.924 443.425ZM120.64 441.571C120.452 441.451 120.246 441.352 120.05 441.247L118.899 440.623C118.12 440.202 117.329 439.8 116.543 439.39C116.175 439.198 115.895 439.754 116.253 439.962C117.006 440.404 117.755 440.855 118.521 441.284L119.625 441.908C119.961 442.098 120.435 442.503 120.837 442.321C120.888 442.304 120.932 442.271 120.963 442.227C120.993 442.183 121.009 442.13 121.007 442.077C120.995 441.968 120.954 441.864 120.89 441.775C120.825 441.687 120.739 441.616 120.64 441.571ZM122.325 439.659C122.137 439.539 121.931 439.44 121.733 439.335L120.583 438.711C119.805 438.289 119.014 437.887 118.228 437.477C117.859 437.286 117.58 437.842 117.938 438.049C118.692 438.492 119.44 438.942 120.207 439.372L121.309 439.996C121.646 440.187 122.119 440.59 122.521 440.409C122.572 440.392 122.616 440.36 122.647 440.316C122.678 440.272 122.694 440.219 122.693 440.166C122.68 440.057 122.64 439.953 122.576 439.864C122.511 439.775 122.425 439.704 122.325 439.659ZM117.886 444.188L116.279 442.746C115.679 442.206 115.072 441.676 114.457 441.158C114.406 441.112 114.339 441.088 114.271 441.092C114.202 441.096 114.138 441.126 114.092 441.177C114.046 441.227 114.022 441.294 114.025 441.363C114.028 441.431 114.058 441.495 114.109 441.542C115.081 442.589 116.086 443.606 117.089 444.621C117.332 444.867 117.62 445.269 118.017 445.107C118.09 445.074 118.15 445.018 118.189 444.948C118.228 444.878 118.243 444.797 118.233 444.718C118.222 444.488 118.05 444.336 117.886 444.188Z" fill="white"/>
<path d="M124.871 144.789L135.873 149.337L144.186 144.81L134.33 142.931L124.871 144.789Z" fill="#F5B0A6"/>
<path d="M100.98 203.05L109.062 197.149L113.511 195.465C114.436 195.115 115.497 195.676 115.898 196.726L116.16 197.412L121.769 195.77C122.919 195.433 124.159 196.268 124.478 197.593L125.366 201.278C125.593 202.223 125.289 203.186 124.597 203.709L123.216 204.748L123.258 204.91C123.602 206.206 123.146 207.54 122.143 208.179L115.842 212.185C114.702 212.912 113.439 213.427 112.115 213.706L105.134 215.165L100.98 203.05Z" fill="#F5B0A6"/>
<path d="M113.509 202.557L113.219 201.844L124.362 197.345L124.652 198.058L113.509 202.557Z" fill="#F18A8B"/>
<path d="M115.398 206.076L115.035 205.397L124.984 200.116L125.347 200.795L115.398 206.076Z" fill="#F18A8B"/>
<path d="M116.873 209.141L116.465 208.49L123.01 204.417L123.419 205.071L116.873 209.141Z" fill="#F18A8B"/>
<path d="M110.485 200.124L110.195 199.411L116.01 197.055L116.3 197.768L110.485 200.124Z" fill="#F18A8B"/>
<path d="M97.5508 203.145L102.268 201.479L108.18 217.228L100.552 221.341L97.5508 203.145Z" fill="white"/>
<path d="M62.2338 214.208L97.5518 203.14L104.305 221.086L79.6513 238.705C71.4984 244.539 60.0946 242.21 54.8846 233.666C50.4151 226.345 54.0257 216.785 62.2338 214.208Z" fill="#711DDC"/>
<path opacity="0.5" d="M175.156 176.816C175.156 176.816 174.534 222.192 181.68 227.914C181.68 227.914 173.612 222.728 173.451 218.353C173.291 213.977 173.137 217.85 173.137 217.85L175.156 176.816Z" fill="#2E2E2E"/>
<path d="M316.368 457.63C315.379 457.63 314.516 456.799 314.373 455.642L294.82 298.351L274.022 300.422L258.226 455.585C258.097 456.854 257.092 457.763 255.987 457.616C254.881 457.468 254.087 456.319 254.217 455.049L270.204 298.01C270.314 296.92 271.079 296.066 272.033 295.975L296.375 293.544C297.44 293.437 298.396 294.306 298.549 295.523L318.368 454.984C318.53 456.25 317.758 457.415 316.655 457.603C316.56 457.618 316.464 457.628 316.368 457.63Z" fill="#3D5891"/>
<path d="M311.973 425.343H260.612C260.074 425.343 259.559 425.129 259.179 424.749C258.799 424.37 258.586 423.854 258.586 423.317C258.586 422.78 258.799 422.265 259.179 421.885C259.559 421.505 260.074 421.291 260.612 421.291H311.973C312.51 421.291 313.026 421.505 313.405 421.885C313.785 422.265 313.999 422.78 313.999 423.317C313.999 423.854 313.785 424.37 313.405 424.749C313.026 425.129 312.51 425.343 311.973 425.343ZM442.412 457.63C441.425 457.63 440.561 456.799 440.42 455.642L420.859 298.351L400.059 300.422L384.264 455.585C384.134 456.854 383.129 457.763 382.026 457.616C380.922 457.468 380.125 456.319 380.256 455.049L396.243 298.01C396.351 296.92 397.118 296.066 398.072 295.975L422.411 293.544C423.478 293.437 424.434 294.306 424.585 295.523L444.405 454.984C444.567 456.25 443.796 457.415 442.694 457.603C442.601 457.618 442.507 457.627 442.412 457.63Z" fill="#3D5891"/>
<path d="M438.166 424.231H386.804C385.691 424.231 384.785 423.192 384.785 421.914C384.785 420.635 385.691 419.6 386.804 419.6H438.166C439.281 419.6 440.185 420.635 440.185 421.914C440.185 423.192 439.281 424.231 438.166 424.231Z" fill="#3D5891"/>
<path d="M393.408 290.933H260.282C257.952 290.933 256.062 292.822 256.062 295.153V295.968C256.062 298.299 257.952 300.188 260.282 300.188H393.408C395.739 300.188 397.628 298.299 397.628 295.968V295.153C397.628 292.822 395.739 290.933 393.408 290.933Z" fill="#3D5891"/>
<path d="M396.7 280.422H253.603C250.353 280.422 247.719 283.057 247.719 286.307V287.441C247.719 290.691 250.353 293.325 253.603 293.325H396.7C399.95 293.325 402.584 290.691 402.584 287.441V286.307C402.584 283.057 399.95 280.422 396.7 280.422Z" fill="#5681BF"/>
<path d="M333.814 286.034L319.9 291.45C319.776 291.497 319.673 291.586 319.608 291.702C319.543 291.818 319.521 291.952 319.545 292.083C319.569 292.213 319.638 292.331 319.74 292.416C319.842 292.501 319.97 292.547 320.103 292.547H351.873C352.671 292.548 353.461 292.391 354.197 292.085L366.265 287.091C366.386 287.039 366.486 286.948 366.547 286.832C366.608 286.716 366.628 286.582 366.602 286.453C366.576 286.324 366.506 286.208 366.405 286.125C366.303 286.042 366.176 285.996 366.045 285.995H334.018C333.949 285.996 333.879 286.009 333.814 286.034Z" fill="white"/>
<path d="M344.428 281.889L328.355 288.145H363.717L377.053 282.839C377.14 282.804 377.213 282.74 377.258 282.658C377.304 282.576 377.32 282.48 377.304 282.388C377.287 282.295 377.239 282.211 377.168 282.15C377.096 282.089 377.006 282.054 376.912 282.052L345.998 281.606C345.461 281.598 344.928 281.695 344.428 281.889Z" fill="white"/>
<path d="M380.033 385.566L371.374 433.278L370.99 453.269H344.079C341.522 453.269 340.461 449.987 342.537 448.487L355.268 442.374L355.389 430.247L357.982 366.732L380.033 385.566Z" fill="#F5B0A6"/>
<path d="M352.988 402.887L383.362 408.609L387.54 368.906C391.564 344.899 389.3 333.947 380.037 332.704C352.932 329.073 352.988 402.887 352.988 402.887Z" fill="#1D3E89"/>
<path d="M373.464 340.89C375.613 335.109 373.594 330.576 369.974 327.115C361.427 318.923 350.312 322.206 342.953 331.49L290.478 398.001C278.309 387.916 266.468 388.819 291.937 412.553C298.275 413.673 294.899 410.801 300.051 406.248C300.046 406.243 367.091 358.009 373.464 340.89Z" fill="#F5B0A6"/>
<path d="M456.402 326.219C456.39 326.177 456.366 326.139 456.333 326.11C456.3 326.081 456.259 326.063 456.216 326.057L399.132 318.926C396.863 318.536 385.97 317.434 376.078 316.509C365.551 315.525 355.012 318.265 346.298 324.253C346.254 324.284 346.209 324.313 346.168 324.344C330.236 335.271 315.258 357.416 315.258 357.416L338.281 381.912L363.654 361.08C366.091 357.704 369.53 355.183 373.482 353.874C377.434 352.564 381.698 352.534 385.669 353.788C386.326 353.993 386.982 354.194 387.638 354.392C426.346 366.028 467.665 369.397 456.402 326.219Z" fill="#2C4DA2"/>
<path d="M379.617 292.943L393.896 296.087C394.978 295.755 396.023 295.313 397.015 294.768C404.616 290.489 408.088 288.545 413.049 277.836C413.581 276.693 414.109 275.516 414.634 274.305C421.722 257.988 418.533 242.434 404.154 247.331C398.448 249.276 394.646 257.216 389.95 265.574C386.94 270.913 380.499 280.539 379.617 292.943Z" fill="#F18A8B"/>
<path d="M395.63 279.354C392.036 281.411 351.355 272.109 351.355 272.109L359.842 282.955C359.842 282.955 382.245 296.667 396.381 296.537L395.63 279.354Z" fill="#F5B0A6"/>
<path d="M361.153 274.523C361.153 274.523 364.141 274.972 351.465 270.31C341.396 266.607 340.888 283.2 346.877 285.241C352.867 287.283 362.681 284.605 362.681 284.605L361.153 274.523Z" fill="#F5B0A6"/>
<path d="M345.99 287.678L344.152 286.801L355.425 263.055L357.266 263.932L345.99 287.678Z" fill="#323232"/>
<path d="M343.5 290.802C343.5 290.802 343.651 286.475 344.796 285.961C345.942 285.448 346.532 286.433 345.991 287.677C345.45 288.922 343.5 290.802 343.5 290.802Z" fill="#323232"/>
<path d="M347.789 269.769C347.789 269.769 340.619 270.44 341.72 272.594C342.82 274.747 344.637 274.174 344.637 274.174C344.637 274.174 340.383 273.407 340.767 276.183C341.151 278.959 344.303 278.961 344.303 278.961C344.303 278.961 342.609 278.055 341.914 279.87C340.96 282.357 343.635 283.842 345.069 283.651C346.503 283.459 350.274 271.542 347.789 269.769Z" fill="#F5B0A6"/>
<path d="M357.073 272.354L356.101 271.777C355.541 271.444 354.902 271.268 354.25 271.268C353.599 271.268 352.959 271.444 352.4 271.777C348.834 273.911 341.599 278.547 343.44 280.003C345.857 281.926 360.787 275.562 357.073 272.354Z" fill="#F5B0A6"/>
<path d="M417.569 277.121C417.347 278.418 399.915 297.775 399.672 299.012C391.167 293.502 389.449 278.46 383.168 278.489C390.668 260.676 399.672 237.511 413.214 233.334C427.73 228.86 420.564 259.584 417.569 277.121Z" fill="#B57BFF"/>
<path d="M397.891 266.672L394.598 314.123C388.539 315.066 424.214 342.46 451.902 343.665L456.496 343.511C449.094 341.633 474.272 268.594 438.5 238.288C423.653 225.709 410.988 231.843 403.307 246.851C400.157 253.009 398.371 259.77 397.891 266.672Z" fill="white"/>
<path d="M398.491 319.887C398.491 319.887 386.547 315.813 382.723 311.636C392.989 295.467 394.021 244.304 413.221 233.334C403.312 246.851 394.613 309.283 398.491 319.887ZM430.84 231.351C430.84 231.351 431.076 239.34 427.03 246.448C419.725 259.279 410.954 276.862 412.192 299.397C412.87 311.692 405.695 326.946 411.004 338.245C428.239 350.478 456.501 343.512 456.501 343.512C456.501 343.512 463.281 297.675 456.556 265.706C454.012 253.601 446.165 243.874 436.552 236.104C427.876 229.088 430.84 231.351 430.84 231.351Z" fill="#711DDC"/>
<path d="M388.016 317.173C388.016 317.173 384.796 320.056 375.998 318.714C372.595 318.194 365.823 318.105 366.956 315.271C367.754 313.268 375.168 314.363 375.168 314.363C375.168 314.363 370.334 313.331 362.681 313.53C360.493 313.588 361.159 311.495 361.716 311.305C367.268 309.409 371.277 310.657 371.277 310.657C371.277 310.657 366.863 309.163 360.434 311.611C358.953 312.179 359.47 309.944 359.801 309.727C364.862 306.405 371.493 307.656 371.493 307.656C371.493 307.656 367.798 306.766 362.731 308.304C362.647 308.326 362.56 308.337 362.473 308.335C361.282 308.327 361.224 306.63 362.376 306.05C366.644 303.904 372.9 302.893 386.797 306.11C389.313 315.606 388.016 317.173 388.016 317.173Z" fill="#F5B0A6"/>
<path d="M380.184 306.278L385.599 318.4C385.599 318.4 415.602 310.654 429.651 303.355C436.068 300.023 431.01 290.943 429.707 289C424.708 281.546 424.081 277.98 410.015 289.222C392.279 303.387 380.184 306.278 380.184 306.278Z" fill="#F5B0A6"/>
<path d="M431.345 305.867C424.008 294.61 411.32 286.837 411.32 286.837C420.93 255.074 433.018 247.15 439.596 246.448C452.766 245.041 455.247 269.427 431.345 305.867Z" fill="#B57BFF"/>
<path d="M413.707 363.421H405.855V404.084H413.707V363.421Z" fill="#203A75"/>
<path d="M415.66 394.768H403.895V441.148H415.66V394.768Z" fill="#5681BF"/>
<path d="M415.663 395.158H403.897C403.831 395.153 403.77 395.123 403.726 395.075C403.681 395.027 403.656 394.963 403.656 394.898C403.656 394.832 403.681 394.769 403.726 394.721C403.77 394.673 403.831 394.643 403.897 394.638H415.663C415.729 394.643 415.79 394.673 415.834 394.721C415.879 394.769 415.904 394.832 415.904 394.898C415.904 394.963 415.879 395.027 415.834 395.075C415.79 395.123 415.729 395.153 415.663 395.158Z" fill="#8E8E8E"/>
<path d="M440.727 367.375H378.823C377.277 367.35 375.803 366.718 374.719 365.616C373.636 364.514 373.028 363.03 373.028 361.484C373.028 359.938 373.636 358.454 374.719 357.352C375.803 356.25 377.277 355.618 378.823 355.592H440.727C442.273 355.618 443.747 356.25 444.831 357.352C445.914 358.454 446.522 359.938 446.522 361.484C446.522 363.03 445.914 364.514 444.831 365.616C443.747 366.718 442.273 367.35 440.727 367.375ZM438.94 355.283H377.035C375.473 355.283 373.975 354.662 372.87 353.557C371.765 352.453 371.145 350.954 371.145 349.392C371.145 347.83 371.765 346.332 372.87 345.227C373.975 344.122 375.473 343.501 377.035 343.501H438.94C440.502 343.501 442.001 344.122 443.105 345.227C444.21 346.332 444.831 347.83 444.831 349.392C444.831 350.954 444.21 352.453 443.105 353.557C442.001 354.662 440.502 355.283 438.94 355.283Z" fill="#203A75"/>
<path d="M427.473 319.667C426.816 320.07 426.107 320.381 425.366 320.592L388.371 331.374C387.304 331.707 386.178 331.804 385.07 331.659L382.785 332.325C380.801 332.903 380.751 335.705 382.717 336.345C384.744 337.008 387.24 337.039 389.802 336.292L426.794 325.514C429.288 324.786 431.331 323.47 432.694 321.88C433.953 320.404 432.532 318.192 430.675 318.733L427.473 319.667Z" fill="#5681BF"/>
<path d="M438.953 324.558C438.326 324.74 437.652 324.675 437.071 324.377C436.49 324.078 436.045 323.569 435.827 322.952C434.199 321.424 423.231 321.136 406.603 325.981C389.974 330.826 380.875 336.963 380.316 339.127C380.488 339.783 380.392 340.48 380.05 341.066C379.707 341.651 379.146 342.077 378.49 342.249C377.834 342.421 377.137 342.325 376.551 341.983C375.966 341.64 375.54 341.079 375.368 340.423C374.396 337.067 377.177 333.555 383.879 329.69C389.35 326.535 396.913 323.472 405.172 321.066C413.43 318.659 421.455 317.177 427.764 316.903C435.489 316.562 439.718 318.037 440.694 321.385C440.883 322.037 440.807 322.737 440.48 323.332C440.154 323.927 439.605 324.368 438.953 324.558Z" fill="#203A75"/>
<path d="M413.38 360.383H406.246L406.253 327.481L414.365 327.797L413.38 360.383Z" fill="#5681BF"/>
<path d="M413.008 342.867L407.592 344.445L400.211 330.589L411.814 327.209L413.008 342.867Z" fill="#5681BF"/>
<path d="M448.912 361.432H372.472C370.501 361.432 368.612 360.649 367.219 359.256C365.826 357.863 365.043 355.973 365.043 354.003C365.043 352.033 365.826 350.144 367.219 348.75C368.612 347.357 370.501 346.575 372.472 346.575H448.912C450.883 346.575 452.772 347.357 454.165 348.75C455.558 350.144 456.341 352.033 456.341 354.003C456.341 355.973 455.558 357.863 454.165 359.256C452.772 360.649 450.883 361.432 448.912 361.432ZM432.039 437.886H387.512C383.785 437.886 380.743 442.402 380.743 447.923V449.155H384.642C385.011 444.715 387.586 441.248 390.682 441.248H428.876C431.965 441.248 434.54 444.715 434.909 449.155H438.808V447.923C438.808 442.402 435.767 437.886 432.039 437.886Z" fill="#5681BF"/>
<path d="M389.226 449.168C389.224 450.455 388.84 451.713 388.124 452.783C387.407 453.852 386.39 454.685 385.2 455.177C384.01 455.668 382.701 455.796 381.439 455.543C380.176 455.291 379.017 454.671 378.107 453.76C377.198 452.849 376.578 451.689 376.328 450.426C376.077 449.163 376.206 447.855 376.699 446.665C377.192 445.476 378.026 444.46 379.097 443.744C380.167 443.029 381.426 442.647 382.713 442.647C383.569 442.647 384.416 442.816 385.207 443.144C385.997 443.472 386.715 443.953 387.32 444.558C387.925 445.164 388.405 445.883 388.731 446.674C389.058 447.465 389.226 448.312 389.226 449.168ZM443.013 449.168C443.011 450.455 442.628 451.713 441.911 452.783C441.194 453.852 440.177 454.685 438.987 455.177C437.797 455.668 436.488 455.796 435.226 455.543C433.963 455.291 432.804 454.67 431.894 453.759C430.985 452.848 430.365 451.688 430.115 450.425C429.864 449.162 429.994 447.854 430.487 446.664C430.98 445.475 431.815 444.459 432.885 443.744C433.956 443.029 435.214 442.647 436.502 442.647C437.358 442.647 438.205 442.816 438.995 443.144C439.786 443.472 440.504 443.953 441.109 444.559C441.713 445.164 442.193 445.883 442.519 446.674C442.846 447.465 443.014 448.312 443.013 449.168Z" fill="#203A75"/>
<path d="M446.062 361.168C443.871 360.608 441.991 359.202 440.837 357.257C439.682 355.312 439.346 352.989 439.904 350.797L461.66 265.021C462.217 262.832 463.621 260.953 465.563 259.798C467.505 258.644 469.827 258.308 472.017 258.865C474.206 259.422 476.085 260.826 477.24 262.768C478.394 264.711 478.73 267.032 478.173 269.222L456.417 354.997C456.143 356.083 455.658 357.103 454.989 358.001C454.32 358.899 453.48 359.656 452.519 360.229C451.557 360.802 450.492 361.18 449.384 361.341C448.276 361.502 447.147 361.444 446.062 361.168Z" fill="#5681BF"/>
<path d="M355.131 430.852C355.131 430.852 353.775 435.767 349.439 437.497C345.102 439.226 340.798 443.998 339.099 444.037C337.401 444.076 327.889 444.538 329.174 447.764C330.459 450.991 345.42 451.036 351.941 450.744C358.462 450.453 373.609 448.354 373.609 448.354L371.596 433.455L357.844 432.113C357.844 432.113 357.371 428.622 355.131 430.852Z" fill="#243354"/>
<path d="M374.929 452.608C374.756 451.176 373.604 448.355 373.604 448.355C373.604 448.355 358.457 450.453 351.936 450.745C345.415 451.037 330.454 450.988 329.169 447.765C329.068 447.528 329.033 447.268 329.068 447.013L328.857 447.047C328.857 447.047 326.078 450.571 329.869 452.373C333.659 454.175 347.371 454.934 351.164 454.5C354.958 454.065 366.261 454.056 368.271 454.286C370.28 454.516 375.104 454.039 374.929 452.608Z" fill="white"/>
<path d="M338.008 444.102C338.008 444.102 339.682 444.555 340.523 446.772C341.026 448.081 341.353 449.45 341.495 450.845L343.125 450.827C343.125 450.827 343.007 446.064 339.709 443.839C339.706 443.839 338.565 444.215 338.008 444.102ZM372.522 439.853C372.522 439.853 363.646 442.932 362.776 449.774L363.983 449.598C363.983 449.598 365.207 444.056 372.764 440.927L372.522 439.853ZM372.085 437.391C372.085 437.391 362.16 440.446 355.21 435.257L353.763 434.023L352.732 435.07C352.732 435.07 355.445 438.456 360.511 439.165C365.576 439.875 372.341 438.757 372.341 438.757L372.085 437.391ZM343.177 445.97C343.089 445.926 343.016 445.855 342.968 445.769C342.921 445.682 342.901 445.582 342.912 445.484C343.134 443.539 341.819 442.684 341.806 442.676C341.697 442.606 341.62 442.497 341.592 442.37C341.563 442.244 341.586 442.112 341.656 442.003C341.725 441.894 341.835 441.817 341.961 441.788C342.087 441.76 342.219 441.783 342.328 441.852C342.404 441.901 344.169 443.056 343.879 445.594C343.872 445.658 343.852 445.719 343.822 445.775C343.791 445.831 343.749 445.881 343.699 445.92C343.649 445.96 343.592 445.99 343.53 446.008C343.469 446.025 343.405 446.031 343.341 446.024C343.284 446.015 343.228 445.997 343.177 445.97ZM346.534 443.967C346.451 443.926 346.382 443.861 346.335 443.782C346.287 443.703 346.264 443.612 346.266 443.52C346.315 441.611 344.646 440.452 344.631 440.441C344.578 440.405 344.532 440.359 344.497 440.305C344.461 440.252 344.437 440.192 344.425 440.128C344.413 440.065 344.413 440.001 344.426 439.938C344.439 439.875 344.464 439.815 344.5 439.762C344.536 439.709 344.582 439.663 344.635 439.628C344.689 439.592 344.749 439.568 344.812 439.556C344.875 439.543 344.94 439.544 345.003 439.557C345.066 439.569 345.126 439.595 345.179 439.631C345.265 439.689 347.302 441.105 347.238 443.539C347.237 443.603 347.223 443.666 347.197 443.725C347.171 443.783 347.134 443.836 347.087 443.88C347.041 443.924 346.986 443.959 346.927 443.982C346.867 444.005 346.803 444.016 346.739 444.014C346.668 444.015 346.598 443.999 346.534 443.967ZM349.805 442.056C349.729 442.018 349.664 441.96 349.617 441.888C349.57 441.817 349.543 441.734 349.538 441.648C349.426 439.656 347.84 438.37 347.825 438.357C347.775 438.317 347.733 438.268 347.702 438.212C347.67 438.157 347.65 438.095 347.643 438.032C347.635 437.968 347.64 437.904 347.658 437.842C347.675 437.781 347.704 437.723 347.744 437.673C347.784 437.623 347.833 437.581 347.888 437.55C347.944 437.518 348.006 437.498 348.069 437.491C348.133 437.483 348.197 437.488 348.259 437.506C348.32 437.523 348.378 437.552 348.428 437.592C348.507 437.655 350.373 439.154 350.51 441.593C350.516 441.678 350.498 441.764 350.46 441.84C350.422 441.917 350.364 441.982 350.292 442.029C350.221 442.076 350.138 442.103 350.052 442.108C349.967 442.113 349.882 442.095 349.805 442.056ZM352.541 440.225C352.463 440.186 352.398 440.127 352.351 440.054C352.304 439.981 352.277 439.897 352.273 439.81C352.184 437.684 350.977 436.974 350.927 436.945C350.814 436.883 350.731 436.778 350.696 436.654C350.661 436.53 350.676 436.397 350.739 436.284C350.768 436.228 350.807 436.178 350.856 436.137C350.905 436.097 350.961 436.067 351.021 436.048C351.082 436.03 351.146 436.025 351.208 436.032C351.271 436.039 351.332 436.058 351.387 436.09C351.457 436.129 353.124 437.062 353.238 439.768C353.24 439.832 353.231 439.896 353.209 439.956C353.187 440.016 353.154 440.071 353.11 440.118C353.067 440.165 353.015 440.204 352.957 440.231C352.899 440.258 352.836 440.273 352.773 440.276C352.692 440.279 352.613 440.261 352.541 440.225Z" fill="white"/>
<path d="M353.617 435.551C353.619 435.525 353.619 435.5 353.617 435.475C353.617 435.463 353.63 435.453 353.635 435.44C355.068 435.506 356.503 435.375 357.9 435.052C358.579 434.888 359.246 434.677 359.895 434.42C360.503 434.183 361.162 433.86 361.516 433.285C362.141 432.24 361.311 431.065 360.227 430.837C359.563 430.696 358.872 430.874 358.25 431.107C356.89 431.627 355.606 432.33 354.434 433.194C354.128 433.418 353.836 433.66 353.559 433.919C353.482 433.99 353.416 434.07 353.346 434.149C353.316 432.713 353.133 431.285 352.799 429.889C352.632 429.129 352.408 428.384 352.126 427.66C351.862 427.012 351.452 426.43 350.805 426.134C350.519 425.996 350.199 425.945 349.885 425.987C349.57 426.029 349.275 426.163 349.036 426.372C348.797 426.601 348.611 426.878 348.491 427.186C348.371 427.494 348.32 427.825 348.341 428.155C348.366 429.585 349.058 431.063 349.799 432.259C350.168 432.861 350.597 433.425 351.078 433.941C351.457 434.351 352.374 434.958 352.86 435.277L353.617 435.551ZM353.546 434.616C353.696 434.507 353.849 434.4 353.995 434.292C354.275 434.068 354.554 433.843 354.842 433.629C355.395 433.216 355.975 432.841 356.579 432.507C357.102 432.217 357.643 431.961 358.2 431.742C358.761 431.525 359.365 431.328 359.973 431.418C360.443 431.485 360.937 431.783 361.088 432.258C361.285 432.88 360.691 433.324 360.201 433.554C359.14 434.055 357.908 434.305 356.756 434.48C355.693 434.636 354.618 434.681 353.546 434.616ZM349.627 426.631C350.248 426.307 350.924 426.793 351.257 427.304C351.616 427.85 351.794 428.516 351.974 429.137C352.167 429.809 352.325 430.49 352.447 431.178C352.637 432.256 352.749 433.345 352.782 434.439C352.376 434.092 351.933 433.791 351.556 433.399C351.09 432.919 350.673 432.394 350.311 431.832C349.648 430.806 349.075 429.535 348.948 428.308C348.885 427.691 349.031 426.95 349.627 426.631Z" fill="white"/>
<path d="M295.759 389.645C295.759 389.645 291.406 392.292 287.065 390.572C282.724 388.853 276.324 389.37 275.062 388.232C273.799 387.094 266.559 380.896 265.286 384.126C264.014 387.355 274.869 397.665 279.815 401.932C284.761 406.199 297.218 415.075 297.218 415.075L305.969 402.853L296.881 392.431C296.881 392.431 298.908 389.561 295.759 389.645Z" fill="#243354"/>
<path d="M295.268 419.081C296.122 417.919 297.213 415.075 297.213 415.075C297.213 415.075 284.753 406.2 279.807 401.933C274.861 397.666 264.005 387.348 265.279 384.126C265.368 383.885 265.52 383.673 265.719 383.51L265.543 383.392C265.543 383.392 261.106 384.04 262.626 387.96C264.146 391.88 273.608 401.844 276.669 404.135C279.731 406.426 287.96 414.182 289.264 415.728C290.569 417.274 294.406 420.243 295.268 419.081Z" fill="white"/>
<path d="M274.201 387.527C274.201 387.527 275.11 389.005 274.201 391.198C273.67 392.495 272.97 393.716 272.117 394.828L273.315 395.935C273.315 395.935 276.491 392.386 275.614 388.503C275.624 388.503 274.537 387.992 274.201 387.527ZM302.237 408.139C302.237 408.139 293.669 404.285 288.352 408.666L289.348 409.367C289.348 409.367 294.035 406.173 301.678 409.087L302.237 408.139ZM303.604 406.047C303.604 406.047 294.289 401.453 292.784 392.904L292.577 391.012L291.108 391.065C291.108 391.065 290.765 395.393 293.965 399.39C297.166 403.386 302.861 407.222 302.861 407.222L303.604 406.047ZM276.692 392.436C276.658 392.342 276.653 392.241 276.679 392.145C276.704 392.048 276.759 391.962 276.835 391.898C278.324 390.639 277.958 389.109 277.953 389.093C277.921 388.968 277.94 388.835 278.006 388.724C278.072 388.613 278.179 388.533 278.304 388.501C278.43 388.469 278.562 388.489 278.673 388.555C278.784 388.621 278.864 388.728 278.896 388.853C278.919 388.94 279.411 390.995 277.463 392.642C277.415 392.683 277.358 392.714 277.297 392.734C277.237 392.753 277.173 392.761 277.109 392.755C277.045 392.75 276.983 392.732 276.926 392.703C276.87 392.674 276.819 392.634 276.778 392.585C276.74 392.541 276.711 392.49 276.692 392.436ZM280.505 393.279C280.473 393.192 280.467 393.098 280.487 393.007C280.506 392.917 280.552 392.834 280.617 392.768C281.96 391.413 281.539 389.425 281.536 389.404C281.522 389.342 281.521 389.277 281.532 389.214C281.543 389.151 281.566 389.091 281.6 389.037C281.635 388.983 281.679 388.937 281.732 388.9C281.784 388.864 281.843 388.838 281.905 388.824C281.968 388.81 282.032 388.809 282.095 388.82C282.158 388.831 282.218 388.854 282.272 388.888C282.326 388.923 282.372 388.967 282.409 389.02C282.446 389.072 282.472 389.131 282.485 389.193C282.51 389.297 283.022 391.726 281.309 393.455C281.264 393.501 281.21 393.537 281.151 393.561C281.092 393.586 281.029 393.598 280.965 393.598C280.901 393.598 280.837 393.586 280.778 393.561C280.719 393.537 280.665 393.501 280.62 393.455C280.569 393.406 280.53 393.345 280.505 393.279ZM284.2 394.136C284.169 394.055 284.161 393.967 284.176 393.881C284.191 393.796 284.228 393.716 284.284 393.65C285.568 392.123 285.294 390.098 285.291 390.085C285.272 389.956 285.305 389.824 285.383 389.72C285.46 389.615 285.577 389.546 285.705 389.527C285.834 389.508 285.966 389.541 286.07 389.619C286.175 389.697 286.244 389.813 286.263 389.942C286.277 390.042 286.608 392.415 285.038 394.285C284.997 394.334 284.946 394.374 284.89 394.404C284.833 394.433 284.771 394.451 284.707 394.456C284.643 394.462 284.579 394.455 284.518 394.435C284.458 394.416 284.401 394.385 284.352 394.343C284.283 394.29 284.231 394.218 284.2 394.136ZM287.441 394.687C287.411 394.605 287.404 394.517 287.419 394.432C287.435 394.346 287.473 394.266 287.53 394.201C288.921 392.592 288.528 391.248 288.512 391.191C288.493 391.13 288.486 391.065 288.492 391.001C288.498 390.937 288.517 390.875 288.547 390.818C288.577 390.761 288.618 390.711 288.668 390.67C288.717 390.629 288.775 390.599 288.836 390.58C288.897 390.559 288.961 390.549 289.025 390.553C289.088 390.557 289.151 390.574 289.208 390.603C289.265 390.632 289.316 390.673 289.357 390.722C289.397 390.771 289.428 390.828 289.446 390.89C289.472 390.966 290.044 392.792 288.274 394.839C288.19 394.937 288.07 394.996 287.941 395.005C287.813 395.015 287.686 394.972 287.589 394.888C287.522 394.836 287.471 394.766 287.441 394.687Z" fill="white"/>
<path d="M291.425 392.025C291.443 392.006 291.458 391.986 291.472 391.965L291.507 391.953C292.506 392.984 293.641 393.874 294.88 394.598C295.486 394.945 296.116 395.25 296.764 395.51C297.369 395.753 298.069 395.972 298.72 395.787C299.892 395.463 300.093 394.032 299.461 393.122C299.074 392.563 298.448 392.217 297.84 391.96C296.492 391.404 295.075 391.033 293.627 390.858C293.251 390.811 292.872 390.786 292.493 390.785C292.387 390.785 292.284 390.796 292.18 390.806C293.141 389.74 293.985 388.575 294.698 387.33C295.097 386.663 295.443 385.966 295.735 385.246C295.982 384.598 296.087 383.888 295.818 383.228C295.705 382.931 295.508 382.674 295.25 382.488C294.992 382.303 294.685 382.197 294.368 382.185C293.689 382.168 293.089 382.509 292.642 383.003C291.682 384.063 291.174 385.614 290.89 386.99C290.747 387.683 290.673 388.388 290.668 389.096C290.668 389.655 290.914 390.717 291.049 391.289L291.425 392.025ZM292.013 391.295C292.198 391.32 292.382 391.346 292.567 391.362C292.924 391.394 293.28 391.42 293.637 391.462C294.322 391.542 295.002 391.668 295.671 391.84C296.249 391.987 296.817 392.172 297.371 392.396C297.928 392.621 298.505 392.893 298.887 393.368C299.182 393.739 299.338 394.295 299.122 394.745C298.84 395.334 298.105 395.248 297.589 395.079C296.474 394.715 295.406 394.05 294.449 393.386C293.567 392.775 292.75 392.075 292.013 391.295ZM294.629 382.792C295.309 382.977 295.463 383.8 295.356 384.402C295.241 385.05 294.915 385.653 294.62 386.228C294.301 386.85 293.95 387.455 293.567 388.04C292.968 388.954 292.304 389.824 291.579 390.642C291.52 390.111 291.417 389.582 291.399 389.043C291.387 388.374 291.441 387.706 291.561 387.048C291.781 385.845 292.233 384.528 292.982 383.547C293.363 383.055 293.971 382.616 294.629 382.792Z" fill="white"/>
<path d="M446.509 202.632C446.509 202.632 448.816 209.821 446.023 219.162C443.159 228.723 454.059 229.101 451.601 238.399C451.601 238.399 419.908 243.702 393.929 221.87C393.929 221.87 393.031 213.257 399.178 211.985C407.784 210.192 410.931 201.924 410.931 201.924L446.509 202.632Z" fill="black"/>
<path d="M446.699 211.167C449.024 202.009 442.893 192.551 433.006 190.041C423.119 187.532 413.22 192.923 410.896 202.081C408.572 211.239 414.702 220.697 424.589 223.206C434.476 225.715 444.375 220.325 446.699 211.167Z" fill="black"/>
<path d="M434.896 218.098C435.058 216.926 432.86 207.065 439.219 196.312C439.219 196.312 443.81 196.328 443.35 204.643C442.613 217.977 434.896 218.098 434.896 218.098Z" fill="black"/>
<path d="M440.439 197.436C440.439 197.436 433.484 202.689 411.594 196.356C411.594 196.356 417.104 188.445 428.721 189.43C440.339 190.415 440.439 197.436 440.439 197.436Z" fill="black"/>
<path d="M406.941 213.51L408.11 204.294C408.056 197.164 407.019 189.061 421.273 191.628C426.989 188.209 430.024 194.537 434.91 199.073C435.426 199.544 438.02 198.596 438.461 199.133C443.133 204.805 446.496 209.718 443.982 216.62C443.076 219.108 436.547 227.64 433.426 225.83L406.941 213.51Z" fill="black"/>
<path d="M431.285 219.88L428.6 240.113C428.6 240.113 425.035 242.044 419.757 241.262C413.401 240.318 412.234 238.516 412.234 238.516L414.382 226.038L415.602 219.394L431.285 219.88Z" fill="#F5B0A6"/>
<path d="M426.19 229.365L412.355 237.669L414.376 226.042L426.19 229.365Z" fill="#F18A8B"/>
<path d="M434.51 200.507L427.973 227.283C427.828 227.867 427.513 228.396 427.07 228.803C426.626 229.21 426.072 229.478 425.477 229.573L413.286 231.492C412.776 231.57 412.254 231.52 411.769 231.344C411.284 231.168 410.85 230.874 410.508 230.487L405.588 224.868C405.265 224.502 405.035 224.063 404.918 223.589C404.8 223.115 404.798 222.619 404.913 222.144L405.141 221.225L407.757 210.517L409.272 204.299C409.886 201.811 411.461 199.667 413.652 198.338C415.844 197.01 418.473 196.604 420.963 197.211L434.51 200.507Z" fill="#F5B0A6"/>
<path d="M409.451 216.669C409.195 218.7 407.507 220.216 405.484 220.438L407.29 212.396C408.029 212.818 408.628 213.448 409.013 214.207C409.397 214.967 409.55 215.823 409.451 216.669ZM413.691 219.675C413.633 219.668 413.578 219.649 413.529 219.618L409.801 217.273C409.716 217.219 409.654 217.135 409.628 217.037C409.603 216.94 409.615 216.836 409.662 216.747L414.551 207.575C414.601 207.48 414.687 207.41 414.789 207.379C414.891 207.348 415.001 207.358 415.095 207.408C415.189 207.458 415.259 207.544 415.291 207.646C415.322 207.748 415.311 207.858 415.261 207.952L410.56 216.802L413.963 218.949C414.041 218.998 414.099 219.073 414.128 219.16C414.158 219.247 414.156 219.341 414.124 219.427C414.092 219.513 414.031 219.586 413.952 219.632C413.873 219.679 413.78 219.697 413.689 219.683L413.691 219.675Z" fill="#F18A8B"/>
<path d="M431.861 226.5C434.964 226.5 437.479 223.992 437.479 220.898C437.479 217.804 434.964 215.296 431.861 215.296C428.758 215.296 426.242 217.804 426.242 220.898C426.242 223.992 428.758 226.5 431.861 226.5Z" fill="#F5B0A6"/>
<path d="M409.167 204.461C409.362 205.631 413.369 205.824 413.408 204.723C413.475 202.895 408.858 202.605 409.167 204.461ZM425.418 208.099C424.648 209.003 421.109 207.117 421.644 206.154C422.529 204.55 426.638 206.666 425.418 208.099Z" fill="black"/>
<path d="M426.874 220.451C426.753 221.282 426.388 222.058 425.826 222.681C425.263 223.305 424.528 223.747 423.714 223.952C422.9 224.158 422.043 224.117 421.252 223.835C420.461 223.554 419.772 223.043 419.271 222.369C418.77 221.695 418.481 220.888 418.439 220.049C418.397 219.211 418.605 218.379 419.037 217.658C419.468 216.938 420.104 216.362 420.863 216.003C421.622 215.644 422.471 215.519 423.301 215.642C424.412 215.807 425.412 216.406 426.082 217.308C426.752 218.209 427.037 219.339 426.874 220.451Z" fill="#F18A8B"/>
<path d="M419.889 213.763C419.649 214.75 418.968 215.432 418.37 215.286C417.772 215.14 417.484 214.223 417.722 213.238C417.96 212.253 418.643 211.569 419.241 211.715C419.839 211.86 420.122 212.778 419.889 213.763ZM410.72 211.721C410.48 212.71 409.816 213.397 409.239 213.256C408.662 213.115 408.39 212.201 408.631 211.214C408.872 210.227 409.535 209.538 410.112 209.678C410.689 209.817 410.961 210.733 410.72 211.721Z" fill="black"/>
<path d="M430.191 222.376L429.887 221.89L433.771 219.458L434.077 219.942L430.191 222.376Z" fill="#F18A8B"/>
<path d="M432.834 222.741L431.742 221.073L432.222 220.761L433.314 222.428L432.834 222.741Z" fill="#F18A8B"/>
<path d="M417.009 197.622C417.009 197.622 416.864 201.456 422.902 204.266C425.84 205.634 428.055 205.901 428.677 207.039C429.462 208.457 427.749 211.99 428.366 213.495C428.901 214.792 429.105 214.305 430.081 215.315C430.029 215.542 429.849 217.825 429.347 219.797C432.926 216.626 439.689 215.166 439.896 210.398C440.049 206.861 439.421 203.268 437.812 200.103C436.203 196.938 433.584 194.258 430.345 192.83C427.556 191.602 424.394 191.333 421.372 191.749C416.377 192.444 415.376 194.352 412.135 198.192C408.894 202.033 407.698 205.696 406.301 210.693C411.44 197.543 417.009 197.622 417.009 197.622Z" fill="black"/>
<path opacity="0.22" d="M420.339 208.723L413.989 214.102C413.989 214.102 414.787 217.208 417.169 217.443L423.526 212.235C423.526 212.235 422.875 209.133 420.339 208.723ZM409.573 206.181L403.973 211.723C403.973 211.723 404.556 214.781 406.587 214.941L412.186 209.566C412.186 209.566 411.727 206.508 409.573 206.181Z" fill="white"/>
<path d="M417.617 218.048C416.312 217.741 415.181 216.929 414.475 215.789C413.768 214.65 413.542 213.277 413.848 211.971C414.074 210.994 414.586 210.106 415.318 209.42C416.05 208.734 416.969 208.28 417.959 208.117C418.948 207.954 419.964 208.088 420.878 208.502C421.791 208.917 422.561 209.593 423.09 210.446C423.619 211.298 423.883 212.288 423.848 213.291C423.814 214.293 423.482 215.263 422.896 216.077C422.31 216.892 421.496 217.513 420.556 217.864C419.616 218.215 418.593 218.279 417.617 218.048ZM416.363 209.232C415.456 209.791 414.772 210.647 414.426 211.655C414.08 212.662 414.094 213.758 414.466 214.756C414.838 215.754 415.544 216.592 416.465 217.128C417.385 217.663 418.463 217.863 419.515 217.692C420.566 217.522 421.526 216.993 422.23 216.194C422.935 215.395 423.34 214.377 423.378 213.313C423.416 212.249 423.084 211.204 422.438 210.357C421.792 209.511 420.872 208.914 419.835 208.67C419.486 208.588 419.129 208.547 418.771 208.547C417.92 208.548 417.086 208.785 416.363 209.232ZM406.938 215.523C404.614 214.971 403.24 212.313 403.873 209.602C404.178 208.205 405.024 206.987 406.225 206.211C406.667 205.929 407.162 205.737 407.68 205.646C408.197 205.556 408.728 205.569 409.24 205.685C411.563 206.239 412.937 208.895 412.303 211.606C411.998 213.003 411.153 214.221 409.952 214.996C409.308 215.401 408.565 215.619 407.805 215.625C407.513 215.625 407.222 215.591 406.938 215.523ZM406.473 206.61C405.378 207.319 404.609 208.433 404.332 209.707C403.756 212.169 404.98 214.569 407.046 215.068C407.498 215.169 407.966 215.18 408.423 215.099C408.879 215.019 409.315 214.848 409.705 214.598C410.8 213.888 411.569 212.775 411.846 211.501C412.422 209.039 411.198 206.639 409.13 206.14C408.882 206.082 408.628 206.053 408.373 206.053C407.7 206.059 407.042 206.252 406.473 206.61Z" fill="black"/>
<path d="M413.925 212.2L414.239 211.851C414.2 211.816 413.257 210.983 412.016 211.328L412.142 211.78C413.129 211.504 413.894 212.17 413.925 212.2Z" fill="black"/>
<path d="M429.532 218.805L429.783 218.409L423.517 214.436L423.266 214.831L429.532 218.805Z" fill="black"/>
<path d="M415.583 224.935C415.466 225.054 415.339 225.163 415.202 225.259C414.712 225.591 414.152 225.807 413.566 225.891C412.98 225.975 412.382 225.925 411.818 225.745C411.325 225.584 410.872 225.319 410.49 224.967C409.906 224.447 409.548 223.719 409.493 222.938C409.478 222.512 409.655 222.01 410.115 221.903C410.223 221.886 410.332 221.886 410.439 221.903C410.641 221.948 410.839 222.01 411.031 222.088C412.084 222.485 413.205 222.674 414.33 222.645C414.696 222.617 415.064 222.653 415.418 222.752C415.562 222.785 415.697 222.852 415.81 222.948C415.922 223.044 416.01 223.166 416.066 223.303C416.278 223.878 415.999 224.489 415.583 224.935Z" fill="black"/>
<path d="M415.428 222.757C415.39 223.031 415.253 223.283 415.044 223.465C414.794 223.63 414.498 223.709 414.2 223.69C413.119 223.729 412.043 223.528 411.049 223.1C410.804 223.02 410.593 222.859 410.45 222.643C410.4 222.527 410.375 222.402 410.375 222.276C410.375 222.149 410.4 222.024 410.45 221.908C410.652 221.953 410.85 222.015 411.041 222.092C412.095 222.489 413.215 222.679 414.341 222.65C414.707 222.622 415.075 222.658 415.428 222.757Z" fill="white"/>
<path d="M415.201 225.262C414.71 225.594 414.151 225.81 413.565 225.894C412.979 225.979 412.381 225.929 411.817 225.748C411.323 225.587 410.87 225.322 410.488 224.971C410.987 224.512 411.741 224.322 412.443 224.332C413.441 224.317 414.415 224.645 415.201 225.262Z" fill="#F18A8B"/>
<path d="M376.13 407.144L356.148 403.597L374.859 414.602L376.13 407.144Z" fill="#F18A8B"/>
<path d="M318.938 361.241L329.474 383.677L335.65 379.068L318.938 361.241Z" fill="#F18A8B"/>
<path d="M269.027 87.7583L195.218 86.6596C190.11 86.5834 185.893 91.4823 185.818 96.6518L185.376 127.024C185.301 132.195 189.385 136.447 194.493 136.524L198.271 136.58L198.078 149.943L216.105 136.844L268.302 137.621C273.41 137.697 277.616 133.569 277.692 128.397L278.144 97.2644C278.218 92.0884 274.135 87.8328 269.027 87.7583Z" fill="#5681BF"/>
<path d="M214.476 118.426L194.644 118.131C191.299 118.068 191.362 112.909 194.72 112.945L214.555 113.24C217.895 113.303 217.832 118.461 214.476 118.426ZM214.643 126.117L194.812 125.822C191.467 125.759 191.531 120.6 194.887 120.636L214.717 120.931C218.064 120.994 218 126.152 214.643 126.117ZM214.61 110.701L194.785 110.406C191.44 110.342 191.505 105.186 194.861 105.22L214.691 105.515C218.031 105.578 217.966 110.736 214.61 110.701Z" fill="#D9E7FF"/>
<path d="M259.161 103.445H254.176V129.302H259.161V103.445Z" fill="#ADC5F2"/>
<path d="M245.758 105.081H240.773V129.302H245.758V105.081Z" fill="#ADC5F2"/>
<path d="M232.364 113.064H227.379V129.3H232.364V113.064Z" fill="#ADC5F2"/>
<path d="M256.477 113.813H251.492V129.445H256.477V113.813Z" fill="#D9E7FF"/>
<path d="M243.079 115.618H238.094V129.445H243.079V115.618Z" fill="#D9E7FF"/>
<path d="M229.68 120.176H224.695V129.446H229.68V120.176Z" fill="#D9E7FF"/>
<path d="M233.553 110.936H229.031V112.676H233.553V110.936Z" fill="#D9E7FF"/>
<path d="M246.951 102.953H242.43V104.694H246.951V102.953Z" fill="#D9E7FF"/>
<path d="M260.351 101.315H255.828V103.054H260.351V101.315Z" fill="#D9E7FF"/>
<path d="M241.982 111.589C241.835 111.589 241.692 111.539 241.577 111.448L234.651 105.938H227.197C227.026 105.929 226.866 105.856 226.748 105.732C226.63 105.609 226.565 105.445 226.565 105.274C226.565 105.104 226.63 104.94 226.748 104.816C226.866 104.693 227.026 104.619 227.197 104.611H235.111L242.404 110.411C242.54 110.521 242.628 110.68 242.649 110.854C242.669 111.028 242.621 111.203 242.514 111.342C242.451 111.422 242.37 111.486 242.278 111.529C242.185 111.572 242.084 111.592 241.982 111.589ZM228.245 98.4202C227.943 98.4216 227.645 98.3625 227.366 98.2464C227.088 98.1304 226.836 97.9597 226.624 97.7444C226.3 97.4245 226.079 97.0154 225.988 96.5691C225.897 96.1229 225.94 95.6597 226.113 95.2383C226.286 94.817 226.581 94.4566 226.959 94.203C227.337 93.9494 227.782 93.814 228.238 93.814C228.693 93.814 229.138 93.9494 229.517 94.203C229.895 94.4566 230.189 94.817 230.362 95.2383C230.535 95.6597 230.579 96.1229 230.488 96.5691C230.397 97.0154 230.175 97.4245 229.851 97.7444C229.642 97.9581 229.392 98.1278 229.116 98.2439C228.84 98.3599 228.544 98.4198 228.245 98.4202ZM228.245 95.1305C228.117 95.1303 227.991 95.1556 227.873 95.2048C227.756 95.2541 227.649 95.3263 227.56 95.4173C227.423 95.5531 227.33 95.7263 227.292 95.9151C227.254 96.1039 227.273 96.2997 227.346 96.4777C227.42 96.6557 227.544 96.8079 227.704 96.915C227.864 97.0221 228.052 97.0792 228.245 97.0792C228.438 97.0792 228.626 97.0221 228.786 96.915C228.946 96.8079 229.07 96.6557 229.144 96.4777C229.217 96.2997 229.236 96.1039 229.198 95.9151C229.16 95.7263 229.067 95.5531 228.93 95.4173C228.841 95.3263 228.734 95.2541 228.617 95.2048C228.499 95.1556 228.373 95.1303 228.245 95.1305ZM228.227 101.389C228.141 101.389 228.055 101.372 227.975 101.339C227.895 101.305 227.823 101.256 227.762 101.195C227.639 101.069 227.57 100.901 227.57 100.725C227.57 100.55 227.639 100.381 227.762 100.256L232.342 95.6231C232.402 95.5611 232.474 95.5119 232.554 95.4782C232.634 95.4446 232.719 95.4273 232.806 95.4273C232.893 95.4273 232.978 95.4446 233.058 95.4782C233.138 95.5119 233.21 95.5611 233.27 95.6231C233.393 95.7483 233.462 95.9168 233.462 96.0923C233.462 96.2678 233.393 96.4363 233.27 96.5614L228.691 101.195C228.63 101.256 228.558 101.305 228.479 101.339C228.399 101.372 228.313 101.389 228.227 101.389ZM232.787 103.014C232.486 103.016 232.187 102.957 231.908 102.841C231.63 102.725 231.378 102.554 231.167 102.339C230.945 102.129 230.767 101.877 230.644 101.597C230.52 101.317 230.454 101.016 230.449 100.71C230.444 100.405 230.499 100.101 230.613 99.8174C230.727 99.5338 230.896 99.2756 231.111 99.0582C231.326 98.8409 231.582 98.6686 231.864 98.5515C232.146 98.4344 232.449 98.3749 232.755 98.3764C233.06 98.378 233.363 98.4406 233.644 98.5605C233.925 98.6804 234.179 98.8553 234.392 99.0749C234.819 99.5104 235.059 100.096 235.059 100.707C235.059 101.317 234.819 101.903 234.392 102.339C234.183 102.552 233.933 102.722 233.657 102.838C233.382 102.954 233.086 103.014 232.787 103.014ZM232.787 99.7263C232.66 99.7262 232.533 99.7514 232.416 99.8007C232.298 99.85 232.191 99.9222 232.102 100.013C231.965 100.149 231.872 100.322 231.834 100.511C231.796 100.7 231.815 100.896 231.889 101.074C231.962 101.252 232.087 101.404 232.247 101.511C232.407 101.618 232.595 101.675 232.787 101.675C232.98 101.675 233.168 101.618 233.328 101.511C233.488 101.404 233.613 101.252 233.686 101.074C233.76 100.896 233.779 100.7 233.741 100.511C233.703 100.322 233.609 100.149 233.473 100.013C233.383 99.9222 233.277 99.85 233.159 99.8007C233.041 99.7514 232.915 99.7262 232.787 99.7263Z" fill="white"/>
<path d="M68.3633 394.152C68.3633 394.152 74.3188 363.948 98.6674 353C123.016 342.052 122.916 359.22 122.916 361.459C122.916 363.699 123.611 369.298 114.27 370.048C104.929 370.798 96.282 365.817 87.3398 374.526C78.3977 383.234 73.7273 390.7 72.6318 397.169L68.3633 394.152Z" fill="#6FC183"/>
<path d="M71.8818 396.22C71.8981 396.021 73.773 376.239 91.8145 362.929C109.856 349.62 122.422 359.803 122.546 359.907L122.709 359.609C122.678 359.583 119.467 356.949 114.068 356.019C109.088 355.162 101.154 355.611 91.6557 362.62C73.4846 376.026 71.5999 395.982 71.582 396.183L71.8818 396.22Z" fill="#40947E"/>
<path d="M107.696 356.006C110.192 351.793 119.745 352.812 119.841 352.822L119.868 352.462C119.47 352.416 110.051 351.417 107.457 355.794L107.696 356.006ZM109.508 370.032L109.805 369.998C109.795 369.881 108.808 358.254 100.757 357.406L100.731 357.766C108.534 358.588 109.5 369.918 109.508 370.032ZM90.1054 364.128C90.6823 359.207 99.84 352.979 99.9324 352.917L99.7881 352.593C99.4057 352.851 90.4085 358.97 89.8105 364.068L90.1054 364.128ZM84.0057 370.155C90.1637 364.065 94.5117 369.769 94.7013 370.016L94.9216 369.772C94.8763 369.709 90.1994 363.564 83.8258 369.875L84.0057 370.155ZM78.734 376.864L78.9901 376.681C78.2155 375.077 81.0838 368.868 82.2539 366.612L82.0043 366.418C81.8277 366.758 77.7099 374.743 78.734 376.864ZM72.9601 390.716L74.4445 386.13C75.8868 381.677 82.9961 378.783 83.0674 378.755L82.9734 378.41C82.6768 378.53 75.6631 381.387 74.169 385.997L72.683 390.583L72.9601 390.716ZM55.6608 319.568C42.7726 292.196 34.7931 288.847 34.7931 288.847C34.7931 288.847 33.9828 296.527 32.338 295.247C30.6931 293.967 31.2473 285.433 31.2473 285.433C31.2473 285.433 16.7905 271.78 6.69774 274.932C-3.39499 278.084 -0.665999 294.886 5.60712 303.813C11.8802 312.741 17.2005 316.547 17.2005 316.547L27.5719 318.123C27.5719 318.123 26.0713 320.487 21.2972 320.877C21.2972 320.877 38.6192 340.306 43.3917 349.496C48.1642 358.686 59.2065 380.351 59.4772 390.848L62.2045 390.716C62.2045 390.716 68.5522 346.939 55.6608 319.568ZM20.2601 299.802C19.2877 301.261 16.6155 301.274 14.2965 299.835C11.9775 298.396 10.8933 296.052 11.8656 294.596C12.838 293.139 15.5086 293.126 17.8276 294.563C20.1466 296.001 21.2324 298.347 20.2601 299.802ZM35.2452 303.074C33.9228 302.549 33.3508 300.956 33.9682 299.509C34.5856 298.062 36.1592 297.326 37.4816 297.851C38.8039 298.376 39.376 299.971 38.7585 301.416C38.1411 302.862 36.5659 303.601 35.2436 303.074H35.2452ZM38.3761 307.949C37.3778 307.949 36.5676 307.038 36.5676 305.913C36.5676 304.789 37.3778 303.88 38.3761 303.88C39.3743 303.88 40.183 304.79 40.183 305.913C40.183 307.036 39.3711 307.949 38.3745 307.949H38.3761Z" fill="#40947E"/>
<path d="M60.0366 390.603L59.7125 390.582C60.6329 376.754 55.794 348.668 39.1316 315.029C29.9561 296.495 20.3965 288.042 13.9937 284.216C7.06429 280.074 2.24156 280.311 2.19132 280.312L2.17188 279.988C2.22049 279.988 7.12101 279.737 14.1315 283.92C20.578 287.765 30.2008 296.26 39.4249 314.883C56.1149 348.584 60.9587 376.735 60.0366 390.603Z" fill="#2E6857"/>
<path d="M14.913 284.282L14.5889 284.264C14.8773 279.015 9.26376 274.825 9.20704 274.782L9.39988 274.526C9.46309 274.57 15.2128 278.868 14.913 284.282ZM24.4612 292.939C17.185 287.651 1.68773 292.036 1.53053 292.08L1.44141 291.774C1.60346 291.728 17.2465 287.299 24.6524 292.683L24.4612 292.939ZM29.3569 297.98L29.0652 297.848C30.7943 294.132 23.988 280.067 23.9167 279.926L24.2068 279.787C24.492 280.372 31.1508 294.13 29.3569 297.98ZM36.706 310.178C33.1408 305.403 9.5668 308.347 9.32858 308.378L9.28807 308.054C10.2604 307.931 33.2867 305.057 36.9653 309.982L36.706 310.178ZM42.3228 321.25L42.0408 321.097C44.2658 317.07 40.6731 295.119 40.6375 294.898L40.9616 294.846C41.1042 295.754 44.6013 317.127 42.3228 321.25ZM47.5896 334.114C43.2287 327.102 25.5178 325.859 25.3379 325.849L25.3606 325.525C26.0947 325.572 43.4167 326.789 47.8635 333.942L47.5896 334.114ZM52.3961 346.509L52.1676 346.282C55.057 343.419 54.895 320.516 54.8934 320.292H55.2175C55.224 321.237 55.3795 343.552 52.3961 346.509ZM55.8997 359.615C52.0104 351.432 41.9355 347.947 41.8334 347.921L41.9371 347.619C42.0392 347.653 52.2454 351.172 56.1979 359.478L55.8997 359.615ZM58.5347 370.553L58.3062 370.328C61.395 367.267 61.9184 351.165 61.9233 351.003L62.2474 351.013C62.2328 351.68 61.711 367.404 58.5347 370.553ZM59.648 383.806C57.9935 369.531 50.5989 365.615 50.5244 365.577L50.6718 365.293C50.748 365.332 58.2884 369.326 59.9673 383.767L59.648 383.806Z" fill="#2E6857"/>
<path d="M59.1808 390.467C59.1808 390.467 54.1912 357.325 29.849 346.55C5.50685 335.775 5.59761 352.676 5.59761 354.872C5.59761 357.068 4.90239 362.581 14.2432 363.315C23.584 364.049 32.2312 359.155 41.1734 367.72C50.1155 376.284 54.7859 383.628 55.8798 389.991L59.1808 390.467Z" fill="#2E6857"/>
<path d="M56.6275 389.066C56.6112 388.871 54.7363 369.413 36.6948 356.322C18.6533 343.232 6.08762 353.243 5.96284 353.35L5.80078 353.055C5.83319 353.03 9.04186 350.44 14.4415 349.526C19.423 348.683 27.3556 349.124 36.8552 356.018C55.0264 369.204 56.9111 388.832 56.9273 389.028L56.6275 389.066Z" fill="#40947E"/>
<path d="M20.8148 349.511C18.3208 345.369 8.7677 346.369 8.67047 346.378L8.64453 346.023C9.04318 345.981 18.4618 344.996 21.0563 349.302L20.8148 349.511ZM19.003 363.31L18.7081 363.276C18.7178 363.161 19.7047 351.724 27.754 350.89L27.7799 351.245C19.9786 352.053 19.0128 363.196 19.003 363.31ZM38.4139 357.502C37.837 352.661 28.6793 346.537 28.5869 346.482L28.7311 346.171C29.1136 346.425 38.1092 352.444 38.7072 357.458L38.4139 357.502ZM44.5071 363.431C38.3491 357.435 34.0011 363.052 33.8115 363.294L33.5895 363.055C33.6365 362.992 38.3134 356.947 44.6854 363.154L44.5071 363.431ZM49.7787 370.028L49.5227 369.849C50.2973 368.27 47.429 362.166 46.2573 359.945L46.5085 359.756C46.6787 360.088 50.8029 367.943 49.7787 370.028ZM55.5527 383.654L54.0667 379.144C52.6244 374.769 45.5167 371.916 45.4454 371.889L45.5378 371.55C45.836 371.668 52.8497 374.477 54.3438 379.005L55.8282 383.515L55.5527 383.654Z" fill="#40947E"/>
<path d="M111.783 299.872C108.526 298.694 92.4887 293.003 79.9603 320.482C67.4319 347.962 64.4258 390.751 64.4258 390.751L69.4916 391.658C68.9908 387.242 77.7045 368.308 79.3331 365.757C80.9618 363.206 101.51 334.319 111.282 320.187C121.054 306.056 115.042 301.05 111.783 299.872ZM88.0419 320.482C86.692 320.482 85.5981 319.471 85.5981 318.225C85.5981 316.979 86.692 315.968 88.0419 315.968C89.3918 315.968 90.4841 316.979 90.4841 318.225C90.4841 319.471 89.3918 320.482 88.0419 320.482Z" fill="#2E6857"/>
<path d="M67.1571 390.77L66.7617 390.731C66.786 390.578 69.2784 375.144 82.1828 341.11C88.9323 323.31 96.6591 313.074 101.953 307.608C107.705 301.679 111.8 299.992 111.972 299.925L112.148 300.211C111.986 300.277 95.4291 307.273 82.5652 341.21C69.6706 375.204 67.1798 390.619 67.1571 390.77Z" fill="#6FC183"/>
<path d="M100.662 309.545L100.288 309.435C103.3 302.822 99.2394 299.692 99.1972 299.662L99.4679 299.428C99.5051 299.461 103.77 302.72 100.662 309.545ZM94.932 317.298L94.6079 317.123C104.368 305.116 116.255 308.519 116.375 308.555L116.236 308.855C116.111 308.819 104.511 305.513 94.932 317.298ZM92.5076 320.007L92.1301 319.909C94.9871 312.905 87.7043 308.223 87.6298 308.176L87.8745 307.925C87.9507 307.973 95.4538 312.788 92.5076 320.007ZM87.8907 328.71L87.6152 328.48C99.3026 319.494 109.878 321.484 109.979 321.511L109.881 321.821C109.783 321.793 99.4095 319.854 87.8907 328.71ZM84.5265 336.056H84.1278C84.4519 322.182 79.6243 321.566 79.5757 321.562L79.6162 321.237C79.8301 321.255 84.8522 321.813 84.5265 336.056ZM79.7767 348.552L79.4169 348.414C86.8957 335.894 99.2313 336.798 99.3496 336.809L99.3074 337.133C99.1924 337.119 87.1274 336.247 79.7767 348.552ZM76.0445 359.353L75.6475 359.338C76.4481 345.066 72.8326 342.878 72.7954 342.859L73.0222 342.596C73.1794 342.684 76.8548 344.905 76.0445 359.353ZM72.6139 371.422L72.2266 371.346C75.4676 360.664 84.1602 357.528 84.2477 357.499L84.4098 357.79C84.3207 357.821 75.8112 360.902 72.6139 371.422Z" fill="#6FC183"/>
<path d="M74.7104 343.852C71.4693 323.672 66.9172 320.021 66.9172 320.021C66.9172 320.021 64.9418 324.865 64.1169 323.729C63.2921 322.593 65.2513 317.146 65.2513 317.146C65.2513 317.146 58.4175 305.596 51.2612 305.781C44.1049 305.966 42.7193 317.399 45.1209 324.362C47.5226 331.326 50.2662 334.785 50.2662 334.785L56.7111 337.724C56.7111 337.724 55.2899 338.984 52.112 338.359C52.112 338.359 59.7285 354.193 61.0995 361.046C62.4705 367.9 63.3067 385.097 61.5095 391.978L65.5884 391.329C65.5884 391.329 77.9515 364.035 74.7104 343.852ZM55.4049 324.461C54.4974 325.229 52.7586 324.745 51.5156 323.382C50.2727 322.019 50.0101 320.291 50.916 319.525C51.8219 318.758 53.5624 319.241 54.8053 320.604C56.0483 321.967 56.3124 323.694 55.4049 324.461ZM64.535 329.358C63.7734 328.772 63.7005 327.629 64.373 326.806C65.0455 325.983 66.2091 325.791 66.9659 326.376C67.7226 326.961 67.7988 328.106 67.1279 328.929C66.457 329.752 65.2967 329.943 64.535 329.358ZM65.6532 333.105C65.005 332.922 64.6501 332.18 64.8608 331.449C65.0714 330.718 65.7699 330.274 66.4197 330.459C67.0696 330.643 67.4228 331.386 67.2122 332.116C67.0015 332.847 66.3031 333.29 65.6532 333.105Z" fill="#6FC183"/>
<path d="M64.2015 390.856L63.9957 390.783C67.1946 381.961 69.3289 362.803 64.8173 337.849C62.333 324.101 57.7064 316.838 54.2611 313.165C50.5338 309.192 47.3527 308.456 47.3203 308.448L47.3673 308.237C47.3997 308.237 50.6327 308.989 54.4053 313.003C57.8749 316.695 62.5356 323.997 65.0328 337.812C69.5509 362.812 67.4086 382.008 64.2015 390.856Z" fill="#40947E"/>
<path d="M54.8532 313.386L54.6473 313.314C55.8222 309.955 52.9604 306.194 52.9312 306.155L53.1046 306.023C53.1338 306.057 56.0669 309.911 54.8532 313.386ZM59.4344 320.775C55.6958 315.991 44.7928 315.98 44.6875 315.98V315.765C44.7977 315.765 55.8077 315.774 59.6111 320.642L59.4344 320.775ZM61.6692 324.958L61.5071 324.817C63.3318 322.72 61.5476 312.316 61.5298 312.211L61.7437 312.175C61.8166 312.606 63.5603 322.785 61.6692 324.958ZM64.1551 334.247C62.7338 330.482 46.8509 328.043 46.6905 328.019L46.7229 327.805C47.3825 327.906 62.8943 330.289 64.3592 334.171L64.1551 334.247ZM65.727 342.484L65.5649 342.333C67.7689 340.125 69.5612 325.186 69.579 325.036L69.7946 325.062C69.7281 325.679 67.9828 340.225 65.727 342.484ZM66.7333 351.823C65.2149 346.458 53.9311 342.377 53.8176 342.337L53.8906 342.134C54.3589 342.296 65.3964 346.292 66.9424 351.765L66.7333 351.823ZM67.5274 360.77L67.4221 360.582C69.8399 359.253 74.0387 344.333 74.0809 344.182L74.2916 344.241C74.1182 344.86 70.0247 359.399 67.5274 360.77ZM67.3427 369.942C66.3541 363.903 60.4537 359.78 60.3938 359.733L60.517 359.556C60.5785 359.597 66.5535 363.77 67.5566 369.902L67.3427 369.942ZM66.9991 377.541L66.8938 377.352C69.4769 375.932 72.8444 365.559 72.8784 365.454L73.0859 365.52C72.9481 365.949 69.6568 376.079 66.9991 377.541ZM65.2311 386.365C66.8387 376.776 62.7679 372.864 62.7258 372.825L62.8748 372.663C62.917 372.702 67.072 376.694 65.4466 386.396L65.2311 386.365Z" fill="#40947E"/>
<path d="M83.8264 445.282H50.2812C47.1665 445.282 44.5202 442.614 44.0518 439.004L38.7413 398.105C38.1596 393.63 41.1122 389.6 44.9707 389.6H89.1337C92.9922 389.6 95.94 393.63 95.3631 398.105L90.0526 439.004C89.5875 442.614 86.9411 445.282 83.8264 445.282Z" fill="#F3CE90"/>
<path opacity="0.5" d="M90.6395 389.6H73.4342C76.3738 389.6 78.6199 393.63 78.1807 398.105L74.1294 439.004C73.7712 442.614 71.7553 445.282 69.3828 445.282H86.5881C88.9606 445.282 90.9765 442.614 91.3347 439.004L95.386 398.105C95.8284 393.63 93.5791 389.6 90.6395 389.6Z" fill="#EF7C59"/>
</g>
<defs>
<clipPath id="clip0_94_1548">
<rect width="550" height="550" fill="white"/>
</clipPath>
</defs>
</svg>
